<svg width="192" height="315" viewBox="0 0 192 315" fill="none" xmlns="http://www.w3.org/2000/svg">
<rect opacity="0.2" x="9" y="8" width="174" height="304" fill="url(#paint0_radial_2470_61)"/>
<path d="M9 5V11" stroke="white"/>
<path d="M6 8H12" stroke="white"/>
<path d="M183 5V11" stroke="white"/>
<path d="M180 8H186" stroke="white"/>
<path d="M183 309V315" stroke="white"/>
<path d="M180 312H186" stroke="white"/>
<path d="M9 309V315" stroke="white"/>
<path d="M6 312H12" stroke="white"/>
<path opacity="0.2" d="M45 8L45 312" stroke="#555555"/>
<path opacity="0.2" d="M96 8L96 312" stroke="#555555"/>
<path opacity="0.2" d="M147 8L147 312" stroke="#555555"/>
<mask id="path-13-outside-1_2470_61" maskUnits="userSpaceOnUse" x="58.5322" y="71" width="79" height="166" fill="black">
<rect fill="white" x="58.5322" y="71" width="79" height="166"/>
<path d="M133.182 142.795C133.182 153.39 128.097 162.714 120.256 168.436L135.725 236.245H103.304L91.437 175.005H89.1061V236.245H59.6513V72.6546H100.973C118.773 72.6546 133.182 87.0642 133.182 104.864V142.795ZM89.1061 102.109V145.55H96.3108C100.337 145.55 103.728 142.371 103.728 138.133V109.526C103.728 105.5 100.337 102.109 96.3108 102.109H89.1061Z"/>
</mask>
<path d="M120.256 168.436L119.85 167.879L119.483 168.146L119.584 168.589L120.256 168.436ZM135.725 236.245V236.935H136.59L136.397 236.092L135.725 236.245ZM103.304 236.245L102.627 236.376L102.735 236.935H103.304V236.245ZM91.437 175.005L92.1138 174.874L92.0057 174.315H91.437V175.005ZM89.1061 175.005V174.315H88.4166V175.005H89.1061ZM89.1061 236.245V236.935H89.7955V236.245H89.1061ZM59.6513 236.245H58.9619V236.935H59.6513V236.245ZM59.6513 72.6546V71.9652H58.9619V72.6546H59.6513ZM89.1061 102.109V101.42H88.4166V102.109H89.1061ZM89.1061 145.55H88.4166V146.239H89.1061V145.55ZM133.182 142.795H132.493C132.493 153.165 127.517 162.284 119.85 167.879L120.256 168.436L120.662 168.993C128.676 163.145 133.872 153.616 133.872 142.795H133.182ZM120.256 168.436L119.584 168.589L135.053 236.399L135.725 236.245L136.397 236.092L120.928 168.282L120.256 168.436ZM135.725 236.245V235.556H103.304V236.245V236.935H135.725V236.245ZM103.304 236.245L103.981 236.114L92.1138 174.874L91.437 175.005L90.7602 175.136L102.627 236.376L103.304 236.245ZM91.437 175.005V174.315H89.1061V175.005V175.694H91.437V175.005ZM89.1061 175.005H88.4166V236.245H89.1061H89.7955V175.005H89.1061ZM89.1061 236.245V235.556H59.6513V236.245V236.935H89.1061V236.245ZM59.6513 236.245H60.3407V72.6546H59.6513H58.9619V236.245H59.6513ZM59.6513 72.6546V73.344H100.973V72.6546V71.9652H59.6513V72.6546ZM100.973 72.6546V73.344C118.392 73.344 132.493 87.4449 132.493 104.864H133.182H133.872C133.872 86.6834 119.154 71.9652 100.973 71.9652V72.6546ZM133.182 104.864H132.493V142.795H133.182H133.872V104.864H133.182ZM89.1061 102.109H88.4166V145.55H89.1061H89.7955V102.109H89.1061ZM89.1061 145.55V146.239H96.3108V145.55V144.861H89.1061V145.55ZM96.3108 145.55V146.239C100.705 146.239 104.417 142.765 104.417 138.133H103.728H103.038C103.038 141.978 99.9692 144.861 96.3108 144.861V145.55ZM103.728 138.133H104.417V109.526H103.728H103.038V138.133H103.728ZM103.728 109.526H104.417C104.417 105.119 100.718 101.42 96.3108 101.42V102.109V102.799C99.9563 102.799 103.038 105.881 103.038 109.526H103.728ZM96.3108 102.109V101.42H89.1061V102.109V102.799H96.3108V102.109Z" fill="white" mask="url(#path-13-outside-1_2470_61)"/>
<path opacity="0.2" d="M1 0L0.999986 314" stroke="url(#paint1_radial_2470_61)"/>
<path opacity="0.2" d="M191 0L191 314" stroke="url(#paint2_radial_2470_61)"/>
<defs>
<radialGradient id="paint0_radial_2470_61" cx="0" cy="0" r="1" gradientUnits="userSpaceOnUse" gradientTransform="translate(96 160) rotate(90) scale(152 886.215)">
<stop stop-color="white"/>
<stop offset="1" stop-color="#181818"/>
</radialGradient>
<radialGradient id="paint1_radial_2470_61" cx="0" cy="0" r="1" gradientUnits="userSpaceOnUse" gradientTransform="translate(0.999994 144.765) rotate(90) scale(167.719 29.8946)">
<stop stop-color="white"/>
<stop offset="1"/>
</radialGradient>
<radialGradient id="paint2_radial_2470_61" cx="0" cy="0" r="1" gradientUnits="userSpaceOnUse" gradientTransform="translate(191 144.765) rotate(90) scale(167.719 29.8946)">
<stop stop-color="white"/>
<stop offset="1"/>
</radialGradient>
</defs>
</svg>
