<svg width="410" height="161" viewBox="0 0 410 161" fill="none" xmlns="http://www.w3.org/2000/svg">
<path d="M77.6328 30.4C77.6328 13.6 91.2328 -2.38419e-06 108.033 -2.38419e-06H116.633C133.433 -2.38419e-06 147.033 13.6 147.033 30.4V125.8C147.033 144.8 131.433 160.4 112.433 160.4C93.2328 160.4 77.6328 144.8 77.6328 125.8V30.4ZM105.433 125.8C105.433 129.6 108.433 132.6 112.433 132.6C116.233 132.6 119.233 129.6 119.233 125.8V34.8C119.233 31 116.233 27.8 112.433 27.8C108.433 27.8 105.433 31 105.433 34.8V125.8ZM214.703 2.99999L223.303 157.4H194.303L193.503 132.8H183.303L182.503 157.4H153.503L162.103 2.99999H214.703ZM184.303 105H192.303L189.703 30.8H187.103L184.303 105ZM231.336 157.4V2.99999H274.736C289.136 2.99999 300.736 14.6 300.736 29V131.4C300.736 145.8 289.136 157.4 274.736 157.4H231.336ZM272.936 122.8V37.8C272.936 34 269.936 30.8 266.136 30.8H259.136V129.8H266.136C269.936 129.8 272.936 126.6 272.936 122.8Z" fill="#2C5AFF"/>
</svg>
