<svg width="149" height="155" viewBox="0 0 149 155" fill="none" xmlns="http://www.w3.org/2000/svg">
<path d="M62 -5.24521e-06L70.6 154.4H41.6L40.8 129.8H30.6L29.8 154.4H0.8L9.4 -5.24521e-06H62ZM31.6 102H39.6L37 27.8H34.4L31.6 102ZM78.6328 -5.24521e-06H117.633C134.433 -5.24521e-06 148.033 13.6 148.033 30.4V74.4C148.033 91.2 134.433 104.8 117.633 104.8H106.433V154.4H78.6328V-5.24521e-06ZM120.233 70V34.8C120.233 31 117.233 27.8 113.433 27.8H106.433V77H113.433C117.233 77 120.233 73.8 120.233 70Z" fill="#2C5AFF"/>
</svg>
