<svg width="556" height="134" viewBox="0 0 556 134" fill="none" xmlns="http://www.w3.org/2000/svg">
<path d="M74.334 17.1334H92.126V115.949H74.334V75.3734H65.502V115.949H47.71V17.1334H65.502V57.5814H74.334V17.1334Z" fill="#2C5AFF"/>
<path d="M94.835 34.6694C94.835 23.9174 103.539 15.2134 114.291 15.2134H119.795C130.547 15.2134 139.251 23.9174 139.251 34.6694V95.7254C139.251 107.885 129.267 117.869 117.107 117.869C104.819 117.869 94.835 107.885 94.835 95.7254V34.6694ZM112.627 95.7254C112.627 98.1574 114.547 100.077 117.107 100.077C119.539 100.077 121.459 98.1574 121.459 95.7254V37.4854C121.459 35.0534 119.539 33.0054 117.107 33.0054C114.547 33.0054 112.627 35.0534 112.627 37.4854V95.7254Z" fill="#2C5AFF"/>
<path d="M212.774 17.1334L207.27 115.949H179.11L177.574 75.5014H175.91L174.374 115.949H146.214L140.71 17.1334H157.862L162.214 98.2854H163.75L168.102 17.1334H185.382L189.734 98.2854H191.27L195.622 17.1334H212.774Z" fill="#2C5AFF"/>
<path d="M284.379 17.1334V34.9254H271.067V115.949H253.275V34.9254H239.707V17.1334H284.379Z" fill="#2C5AFF"/>
<path d="M286.335 34.6694C286.335 23.9174 295.039 15.2134 305.791 15.2134H311.295C322.047 15.2134 330.751 23.9174 330.751 34.6694V95.7254C330.751 107.885 320.767 117.869 308.607 117.869C296.319 117.869 286.335 107.885 286.335 95.7254V34.6694ZM304.127 95.7254C304.127 98.1574 306.047 100.077 308.607 100.077C311.039 100.077 312.959 98.1574 312.959 95.7254V37.4854C312.959 35.0534 311.039 33.0054 308.607 33.0054C306.047 33.0054 304.127 35.0534 304.127 37.4854V95.7254Z" fill="#2C5AFF"/>
<path d="M392.084 115.949H365.46V17.1334H392.084C401.94 17.1334 409.876 25.0694 409.876 34.9254V53.4854C409.876 57.3254 408.724 61.0374 406.804 63.9814C408.724 67.0534 409.876 70.6374 409.876 74.6054V98.2854C409.876 108.013 401.94 115.949 392.084 115.949ZM383.252 34.9254V55.1494H387.732C390.164 55.1494 392.084 53.1014 392.084 50.6694V39.4054C392.084 36.9734 390.164 34.9254 387.732 34.9254H383.252ZM392.084 93.6774V77.2934C392.084 74.8614 390.164 72.9414 387.732 72.9414H383.252V98.0294H387.732C390.164 98.0294 392.084 96.1094 392.084 93.6774Z" fill="#2C5AFF"/>
<path d="M439.209 17.1334H457.001V98.4134C457.001 109.165 448.297 117.869 437.545 117.869H432.041C421.289 117.869 412.585 109.165 412.585 98.4134V17.1334H430.377V95.7254C430.377 96.8774 430.889 98.0294 431.657 98.7974C432.425 99.6934 433.577 100.077 434.857 100.077C437.289 100.077 439.209 98.0294 439.209 95.5974V17.1334Z" fill="#2C5AFF"/>
<path d="M508.35 17.1334L492.862 91.8854V115.949H475.07V91.8854L459.582 17.1334H477.374L483.39 57.5814H484.542L490.558 17.1334H508.35Z" fill="#2C5AFF"/>
</svg>
