<svg width="20" height="28" viewBox="0 0 20 28" fill="none" xmlns="http://www.w3.org/2000/svg">
<path opacity="0.2" d="M18.4375 8.375V19.625C18.4375 21.3655 17.7461 23.0347 16.5154 24.2654C15.2847 25.4961 13.6155 26.1875 11.875 26.1875H8.125C6.38452 26.1875 4.71532 25.4961 3.48461 24.2654C2.2539 23.0347 1.5625 21.3655 1.5625 19.625V8.375C1.5625 6.63452 2.2539 4.96532 3.48461 3.73461C4.71532 2.5039 6.38452 1.8125 8.125 1.8125H11.875C13.6155 1.8125 15.2847 2.5039 16.5154 3.73461C17.7461 4.96532 18.4375 6.63452 18.4375 8.375Z" fill="#2C5AFF"/>
<path d="M11.875 0.875H8.125C6.13654 0.877171 4.23015 1.66804 2.8241 3.0741C1.41805 4.48015 0.627171 6.38654 0.625 8.375V19.625C0.627171 21.6135 1.41805 23.5199 2.8241 24.9259C4.23015 26.332 6.13654 27.1228 8.125 27.125H11.875C13.8635 27.1228 15.7699 26.332 17.1759 24.9259C18.582 23.5199 19.3728 21.6135 19.375 19.625V8.375C19.3728 6.38654 18.582 4.48015 17.1759 3.0741C15.7699 1.66804 13.8635 0.877171 11.875 0.875ZM17.5 19.625C17.4984 21.1164 16.9053 22.5462 15.8508 23.6008C14.7962 24.6553 13.3664 25.2484 11.875 25.25H8.125C6.63363 25.2484 5.20379 24.6553 4.14924 23.6008C3.09468 22.5462 2.50155 21.1164 2.5 19.625V8.375C2.50155 6.88363 3.09468 5.45379 4.14924 4.39924C5.20379 3.34468 6.63363 2.75155 8.125 2.75H11.875C13.3664 2.75155 14.7962 3.34468 15.8508 4.39924C16.9053 5.45379 17.4984 6.88363 17.5 8.375V19.625ZM10.9375 8.76289V19.2371L12.1492 18.0242C12.3251 17.8483 12.5637 17.7495 12.8125 17.7495C13.0613 17.7495 13.2999 17.8483 13.4758 18.0242C13.6517 18.2001 13.7505 18.4387 13.7505 18.6875C13.7505 18.9363 13.6517 19.1749 13.4758 19.3508L10.6633 22.1633C10.5762 22.2504 10.4728 22.3196 10.359 22.3668C10.2452 22.414 10.1232 22.4382 10 22.4382C9.8768 22.4382 9.7548 22.414 9.64099 22.3668C9.52718 22.3196 9.42379 22.2504 9.33672 22.1633L6.52422 19.3508C6.34831 19.1749 6.24948 18.9363 6.24948 18.6875C6.24948 18.4387 6.34831 18.2001 6.52422 18.0242C6.70013 17.8483 6.93872 17.7495 7.1875 17.7495C7.43628 17.7495 7.67487 17.8483 7.85078 18.0242L9.0625 19.2371V8.76289L7.85078 9.97578C7.67487 10.1517 7.43628 10.2505 7.1875 10.2505C6.93872 10.2505 6.70013 10.1517 6.52422 9.97578C6.34831 9.79987 6.24948 9.56128 6.24948 9.3125C6.24948 9.06372 6.34831 8.82513 6.52422 8.64922L9.33672 5.83672C9.42379 5.74955 9.52718 5.6804 9.64099 5.63323C9.7548 5.58605 9.8768 5.56176 10 5.56176C10.1232 5.56176 10.2452 5.58605 10.359 5.63323C10.4728 5.6804 10.5762 5.74955 10.6633 5.83672L13.4758 8.64922C13.5629 8.73632 13.632 8.83973 13.6791 8.95354C13.7263 9.06734 13.7505 9.18932 13.7505 9.3125C13.7505 9.43568 13.7263 9.55766 13.6791 9.67146C13.632 9.78527 13.5629 9.88868 13.4758 9.97578C13.3887 10.0629 13.2853 10.132 13.1715 10.1791C13.0577 10.2263 12.9357 10.2505 12.8125 10.2505C12.6893 10.2505 12.5673 10.2263 12.4535 10.1791C12.3397 10.132 12.2363 10.0629 12.1492 9.97578L10.9375 8.76289Z" fill="#2C5AFF"/>
</svg>
