<svg width="368" height="125" viewBox="0 0 368 125" fill="none" xmlns="http://www.w3.org/2000/svg">
<path d="M70.88 104.28C65.3333 104.109 60.384 103.597 56.032 102.744C51.68 101.805 47.712 100.525 44.128 98.904V82.392C47.6267 84.0987 51.8507 85.6773 56.8 87.128C61.7493 88.4933 66.4427 89.304 70.88 89.56V70.232C65.9307 68.2693 61.7067 66.392 58.208 64.6C54.7947 62.808 52.0213 60.9307 49.888 58.968C47.84 56.92 46.3467 54.7013 45.408 52.312C44.4693 49.8373 44 47.0213 44 43.864C44 39.5973 45.1093 35.928 47.328 32.856C49.632 29.6987 52.7893 27.1813 56.8 25.304C60.896 23.4267 65.5893 22.2747 70.88 21.848V12.248H79.456V21.592C84.2347 21.7627 88.7147 22.3173 92.896 23.256C97.1627 24.1947 101.301 25.56 105.312 27.352L99.424 41.944C96.0107 40.4933 92.5547 39.384 89.056 38.616C85.6427 37.848 82.4427 37.336 79.456 37.08V55.512C84.064 57.2187 88.4587 59.096 92.64 61.144C96.8213 63.1067 100.192 65.624 102.752 68.696C105.397 71.768 106.72 75.8213 106.72 80.856C106.72 87.0853 104.459 92.2907 99.936 96.472C95.4133 100.653 88.5867 103.171 79.456 104.024V116.824H70.88V104.28ZM79.456 89.176C82.3573 88.664 84.4907 87.8107 85.856 86.616C87.2213 85.336 87.904 83.7147 87.904 81.752C87.904 80.5573 87.5627 79.5333 86.88 78.68C86.2827 77.7413 85.344 76.888 84.064 76.12C82.8693 75.2667 81.3333 74.4133 79.456 73.56V89.176ZM70.88 37.336C69.1733 37.592 67.7227 38.0187 66.528 38.616C65.3333 39.128 64.3947 39.8533 63.712 40.792C63.1147 41.6453 62.816 42.6693 62.816 43.864C62.816 45.0587 63.072 46.1253 63.584 47.064C64.1813 47.9173 65.0773 48.7707 66.272 49.624C67.4667 50.392 69.0027 51.2027 70.88 52.056V37.336Z" fill="white"/>
<path d="M157.442 8.92V90.2C157.442 100.952 148.738 109.656 137.986 109.656H132.482C121.73 109.656 113.026 100.952 113.026 90.2V73.432H130.818V87.512C130.818 89.944 132.738 91.864 135.298 91.864C137.73 91.864 139.65 89.944 139.65 87.512V8.92H157.442Z" fill="white"/>
<path d="M197.941 8.92L203.445 107.736H184.885L184.373 91.992H177.845L177.333 107.736H158.773L164.277 8.92H197.941ZM178.485 74.2H183.605L181.941 26.712H180.277L178.485 74.2Z" fill="white"/>
<path d="M272.965 8.92L267.461 107.736H239.301L237.765 67.288H236.101L234.565 107.736H206.405L200.901 8.92H218.053L222.405 90.072H223.941L228.293 8.92H245.573L249.925 90.072H251.461L255.813 8.92H272.965Z" fill="white"/>
<path d="M301.025 42.2V29.4C301.025 26.968 299.105 24.792 296.673 24.792C295.393 24.792 294.241 25.304 293.473 26.072C292.705 26.968 292.193 27.992 292.193 29.272V34.392C292.193 35.928 292.449 37.464 292.833 39C293.473 41.304 294.753 43.608 296.545 45.4L302.177 51.416L309.985 59.608C315.617 65.496 318.817 73.432 318.817 81.624V90.2C318.817 91.608 318.689 92.888 318.433 94.168C316.641 103 308.705 109.656 299.361 109.656H293.857C283.105 109.656 274.401 100.952 274.401 90.2V74.584H292.193V87.384C292.193 89.816 294.113 91.864 296.545 91.864C297.825 91.864 298.977 91.48 299.745 90.584C300.513 89.816 301.025 88.664 301.025 87.512V82.264C301.025 78.168 299.489 74.328 296.673 71.256L293.729 68.312L283.233 57.176C282.465 56.28 281.697 55.384 280.929 54.488C276.705 48.984 274.401 42.2 274.401 35.16V26.456C274.401 25.56 274.529 24.664 274.657 23.768C274.657 23.384 274.785 23 274.785 22.488C275.041 21.72 275.169 20.824 275.553 20.056C278.113 12.504 285.409 7 293.857 7H299.361C310.113 7 318.817 15.704 318.817 26.456V42.2H301.025Z" fill="white"/>
</svg>
