<svg width="956" height="503" viewBox="0 0 956 503" fill="none" xmlns="http://www.w3.org/2000/svg">
<g clip-path="url(#clip0_2480_2461)">
<mask id="mask0_2480_2461" style="mask-type:luminance" maskUnits="userSpaceOnUse" x="750" y="173" width="173" height="303">
<path d="M923 173H750V476H923V173Z" fill="white"/>
</mask>
<g mask="url(#mask0_2480_2461)">
<path d="M917.081 373.195C916.242 370.427 914.11 367.874 910.875 365.942C907.424 363.89 903.925 361.957 900.403 360.073C886.313 352.51 871.72 345.925 857.102 339.459C827.7 326.456 798.274 313.454 768.128 302.264C759.694 299.139 751.211 296.156 742.632 293.413C738.271 292.005 733.886 290.693 729.453 289.476C728.039 289.094 726.601 288.689 725.163 288.307C724.013 287.925 722.863 287.544 721.665 287.233C717.783 286.16 713.853 285.229 709.947 284.275C701.991 282.319 694.036 280.386 686.104 278.358C678.676 276.473 671.271 274.326 664.298 271.081C658.283 268.266 652.604 264.807 647.236 260.894C636.166 252.83 626.556 242.881 617.57 232.598C608.009 221.695 599.263 209.98 588.839 199.841C583.088 194.234 576.762 189.128 569.765 185.144C566.29 183.164 562.624 181.446 558.838 180.134C555.028 178.821 551.146 178.153 547.168 177.772C545.85 177.652 545.227 179.084 545.514 180.157C545.442 180.396 545.371 180.635 545.347 180.921C545.251 181.661 545.155 182.424 545.083 183.164C545.011 183.879 544.915 184.643 544.915 185.359C544.7 186.48 544.604 187.649 544.508 188.77C544.292 191.228 544.077 193.709 543.861 196.19C543.046 205.71 542.255 215.205 541.513 224.725C541.153 229.401 540.794 234.077 540.41 238.777C540.051 243.119 539.548 247.485 538.11 251.613C535.474 259.248 529.1 264.663 523.133 269.769C519.155 273.181 515.177 276.569 511.2 279.957C509.402 281.484 507.605 282.963 505.664 284.323C505.017 284.776 504.346 285.229 503.675 285.659C493.946 287.901 484.194 290.144 474.465 292.387C454.695 296.968 434.95 301.668 415.253 306.535C409.693 307.919 404.158 309.278 398.623 310.71C396.274 311.306 393.902 311.903 391.53 312.547C386.162 313.597 380.794 314.575 375.403 315.41C368.334 316.484 361.217 317.223 354.076 317.39C350.529 317.462 346.983 317.295 343.412 317.247C342.094 317.247 340.8 317.152 339.483 317.032C336.152 316.054 332.941 314.67 329.802 313.191C322.205 309.589 314.609 305.986 306.821 302.789C304.856 301.978 302.891 301.19 300.926 300.427C298.938 299.664 296.877 298.638 294.768 299.64C291.341 301.262 291.174 305.628 291.629 308.873C292.108 312.356 293.809 316.15 292.659 319.633C291.581 322.901 288.49 325.383 286.069 327.697C283.146 330.488 280.175 333.232 276.82 335.499C275.119 336.644 273.297 337.694 271.428 338.553C270.23 339.101 269.032 339.578 267.834 340.079C266.444 340.223 265.054 340.413 263.664 340.557C259.231 340.986 254.798 341.32 250.365 341.606C248.184 341.75 246.004 341.845 243.847 342.012C242.409 342.131 240.924 342.155 239.462 342.298C237.257 339.316 234.238 336.811 231.339 334.783C225.012 330.321 217.776 327.101 210.802 323.808C195.634 316.603 180.13 310.113 164.698 303.505C149.242 296.872 133.81 290.12 118.857 282.414C104.048 274.779 89.695 266.19 76.515 256.003C69.638 250.706 63.048 245.052 56.195 239.732C52.792 237.083 49.341 234.531 45.747 232.121C42.176 229.735 38.39 227.039 34.293 225.703C32.304 225.059 30.075 224.987 28.086 225.655C26.313 226.252 26.553 228.375 27.871 228.995C28.709 230.856 29.812 232.622 30.77 234.387C32.016 236.654 33.214 238.92 34.413 241.211C36.737 245.553 38.151 250.301 40.883 254.452C42.129 256.337 43.638 258.007 44.908 259.868C45.531 260.775 46.106 261.634 46.346 262.731C46.586 263.828 46.753 264.974 46.897 266.071C47.185 268.266 47.592 270.413 48.982 272.227C50.372 274.016 52.385 274.803 54.613 274.923C57.177 275.042 59.837 274.541 62.401 274.302C62.952 274.254 63.527 274.207 64.102 274.159C63.288 278.597 67.697 283.535 70.261 286.661C73.951 291.146 77.833 295.464 81.787 299.735C89.743 308.348 98.106 316.507 106.804 324.405C124.177 340.151 142.437 354.919 159.738 370.737C164.003 374.626 168.7 378.491 172.198 383.12C172.606 384.074 173.037 385.005 173.277 386.03C173.732 387.987 173.732 390.015 173.564 391.995C173.181 396.6 171.911 401.109 170.928 405.594C169.97 410.032 169.131 414.541 167.669 418.836C166.184 423.226 164.075 427.401 162.182 431.624L155.616 446.177C155.137 447.251 155.305 448.539 156.407 449.183C157.15 449.613 158.252 449.541 158.947 448.969C162.685 449.207 166.328 448.038 169.85 446.726C173.852 445.247 177.806 443.6 181.592 441.596C188.685 437.803 195.083 432.769 200.858 427.186C212.408 416.02 221.514 402.755 232.081 390.731C232.537 390.206 233.016 389.705 233.495 389.204C233.735 388.989 233.95 388.774 234.19 388.583C235.604 387.343 236.946 386.197 238.767 385.577C240.684 384.933 242.745 384.861 244.758 384.694C249.119 384.36 253.528 384.36 257.889 383.955C258.009 383.955 258.105 383.907 258.225 383.907C258.656 384.026 259.063 384.193 259.495 384.432C260.501 385.028 261.46 385.649 262.346 386.388C264.599 388.273 266.756 390.23 268.984 392.138C271.189 394.047 273.441 395.884 275.646 397.793C276.7 398.723 277.778 399.63 278.809 400.608C279.528 401.276 280.271 402.111 281.157 402.564C281.421 403.28 281.157 403.972 280.774 404.616C280.247 405.57 279.671 406.549 279.096 407.479C277.802 409.531 276.317 411.487 274.975 413.491C274.28 414.541 273.585 415.591 272.89 416.617C272.147 417.738 271.213 418.692 270.446 419.79C270.23 420.1 270.134 420.41 270.11 420.697C269.823 421.221 269.847 421.866 270.47 422.414C274.064 425.516 279.839 425.731 284.368 425.206C289.4 424.609 294.121 422.939 298.602 420.649C303.107 418.358 307.301 415.519 311.518 412.752C315.975 409.841 320.384 406.405 325.273 404.258C327.813 403.137 330.568 402.517 333.276 402.039C334.69 401.777 336.08 401.395 337.446 400.966C338.764 400.918 340.082 400.918 341.4 400.966C344.371 401.109 347.342 401.347 350.314 401.634C352.207 401.801 354.196 401.92 356.137 402.159C356.4 403.185 357.167 404.067 357.838 404.855C358.054 405.093 358.269 405.332 358.485 405.57C357.502 406.382 356.76 407.598 356.376 408.72C355.657 410.819 356.52 412.895 358.293 414.136C361.936 416.712 366.393 418.072 369.987 420.768C372.958 422.987 374.492 426.327 375.546 429.787C376.098 431.671 376.529 433.58 376.984 435.489C377.224 436.515 377.44 437.636 377.751 438.686C377.655 439.449 377.895 440.213 378.422 440.833C378.71 441.143 379.021 441.382 379.357 441.549C379.572 441.692 379.812 441.787 380.028 441.811C380.675 441.978 381.393 441.978 382.136 441.811C384.485 441.286 386.761 440.26 388.966 439.306C390.787 438.495 392.56 437.588 394.285 436.586C396.49 436.705 398.551 435.99 400.612 435.25C402.696 434.51 404.733 433.675 406.77 432.793C410.628 431.099 414.39 429.214 418.176 427.329C421.89 425.492 425.629 423.631 429.487 422.104C429.87 421.961 430.23 421.794 430.613 421.627C438.137 423.369 445.781 424.609 453.401 425.874C461.764 427.281 470.127 428.57 478.514 429.739C495.504 432.125 512.542 434.081 529.603 435.584C563.726 438.59 598.017 439.807 632.26 439.234C641.821 439.067 651.358 438.781 660.919 438.328C665.783 438.113 670.648 437.851 675.512 437.54C676.111 437.493 676.71 437.469 677.31 437.421C677.813 437.994 678.388 438.543 678.867 438.972C680.497 440.523 682.294 441.954 684.067 443.362C687.685 446.273 691.448 448.992 695.33 451.569C698.708 453.812 702.686 455.72 705.274 458.917C707.718 461.947 708.677 466.099 712.199 468.246C713.733 469.177 715.746 469.725 717.543 469.439C720.778 469.534 724.133 468.27 726.913 466.767C731.01 464.548 734.557 461.279 737.576 457.772C743.495 450.877 747.712 442.527 749.653 433.652C749.725 433.341 749.773 433.007 749.821 432.673C750.827 432.721 751.81 432.697 752.816 432.673C755.165 432.673 757.513 432.578 759.885 432.459C764.414 432.22 768.919 431.814 773.424 431.313C782.29 430.311 791.085 428.856 799.855 427.234C808.434 425.659 817.013 424.013 825.543 422.176C833.93 420.386 842.293 418.239 850.225 414.947C853.556 413.563 857.246 412.131 859.738 409.412C861.487 407.503 862.518 404.926 862.302 402.397C866.568 402.111 870.833 401.491 875.002 400.584C885.929 398.27 896.856 394.238 906.633 388.822C909.054 387.486 911.354 385.863 913.391 383.979C917.033 380.591 918.111 376.678 917.033 373.123L917.081 373.195Z" fill="#00134B"/>
</g>
</g>
<path d="M777.774 87.32V124.376H771.15V97.064C769.182 98.024 766.878 98.6 764.478 98.6V92.984C768.126 92.984 771.102 90.44 771.102 87.32H777.774ZM795.431 107V116.792C795.431 121.352 791.687 125.096 787.127 125.096C784.823 125.096 782.711 124.184 781.223 122.648C779.687 121.16 778.775 119.048 778.775 116.792V113.144H785.447V116.792C785.447 117.224 785.639 117.656 785.927 117.944C786.263 118.28 786.695 118.472 787.127 118.424C788.039 118.424 788.759 117.656 788.759 116.744V109.016C788.759 108.056 787.943 107.24 786.983 107.288C786.167 107.384 785.495 108.008 785.447 108.872C785.447 108.872 785.447 108.92 785.447 108.968H778.775L779.591 87.32H794.615V93.992H785.975L785.687 102.344C786.503 101.288 788.087 100.664 789.671 100.664C791.735 100.664 793.895 101.624 794.807 103.832C795.191 104.84 795.431 105.896 795.431 107ZM805.519 90.248C808.207 90.248 810.239 91.192 811.615 93.08C813.023 94.936 813.727 97.56 813.727 100.952C813.727 104.344 813.071 107 811.759 108.92C810.447 110.808 808.367 111.752 805.519 111.752C803.759 111.752 802.271 111.32 801.055 110.456C799.871 109.592 798.975 108.36 798.367 106.76C797.759 105.128 797.455 103.192 797.455 100.952C797.455 97.56 798.095 94.936 799.375 93.08C800.655 91.192 802.703 90.248 805.519 90.248ZM805.567 95.144C804.799 95.144 804.239 95.624 803.887 96.584C803.535 97.544 803.359 99.016 803.359 101C803.359 102.952 803.535 104.424 803.887 105.416C804.239 106.408 804.799 106.904 805.567 106.904C806.335 106.904 806.895 106.408 807.247 105.416C807.631 104.424 807.823 102.952 807.823 101C807.823 99.016 807.631 97.544 807.247 96.584C806.895 95.624 806.335 95.144 805.567 95.144ZM829.855 90.728L810.847 125H805.231L824.239 90.728H829.855ZM829.519 103.928C831.311 103.928 832.815 104.36 834.031 105.224C835.247 106.056 836.159 107.272 836.767 108.872C837.407 110.44 837.727 112.36 837.727 114.632C837.727 118.024 837.071 120.68 835.759 122.6C834.447 124.488 832.367 125.432 829.519 125.432C827.759 125.432 826.271 125 825.055 124.136C823.871 123.272 822.975 122.04 822.367 120.44C821.759 118.808 821.455 116.872 821.455 114.632C821.455 111.24 822.095 108.616 823.375 106.76C824.655 104.872 826.703 103.928 829.519 103.928ZM829.567 108.824C828.799 108.824 828.239 109.304 827.887 110.264C827.535 111.224 827.359 112.696 827.359 114.68C827.359 116.632 827.535 118.104 827.887 119.096C828.239 120.088 828.799 120.584 829.567 120.584C830.335 120.584 830.895 120.104 831.247 119.144C831.631 118.152 831.823 116.664 831.823 114.68C831.823 112.696 831.631 111.224 831.247 110.264C830.895 109.304 830.335 108.824 829.567 108.824Z" fill="#2C5AFF"/>
<path d="M765.31 161V149.8H769.086C769.694 149.8 770.243 149.885 770.734 150.056C771.225 150.216 771.646 150.451 771.998 150.76C772.35 151.069 772.622 151.448 772.814 151.896C773.006 152.344 773.102 152.845 773.102 153.4V153.608C773.102 154.163 773.006 154.669 772.814 155.128C772.622 155.576 772.35 155.96 771.998 156.28C771.657 156.589 771.241 156.829 770.75 157C770.259 157.171 769.71 157.256 769.102 157.256H767.406V161H765.31ZM767.358 155.528H768.894C769.225 155.528 769.518 155.485 769.774 155.4C770.03 155.315 770.249 155.192 770.43 155.032C770.611 154.861 770.75 154.664 770.846 154.44C770.953 154.205 771.006 153.939 771.006 153.64V153.432C771.006 153.155 770.958 152.904 770.862 152.68C770.766 152.445 770.627 152.253 770.446 152.104C770.275 151.955 770.062 151.843 769.806 151.768C769.55 151.683 769.262 151.64 768.942 151.64H767.358V155.528ZM774.181 161V152.68H775.733C775.787 152.84 775.835 153.021 775.877 153.224C775.931 153.427 775.968 153.619 775.989 153.8C776.288 153.448 776.645 153.176 777.061 152.984C777.488 152.781 777.963 152.68 778.485 152.68H778.693V154.584C778.619 154.563 778.523 154.547 778.405 154.536C778.299 154.525 778.192 154.52 778.085 154.52C777.765 154.52 777.488 154.563 777.253 154.648C777.019 154.733 776.816 154.867 776.645 155.048C776.485 155.219 776.363 155.437 776.277 155.704C776.203 155.96 776.165 156.259 776.165 156.6V161H774.181ZM779.588 161V152.68H781.572V161H779.588ZM780.564 151.384C780.223 151.384 779.945 151.288 779.732 151.096C779.519 150.904 779.412 150.648 779.412 150.328C779.412 150.008 779.519 149.747 779.732 149.544C779.945 149.341 780.223 149.24 780.564 149.24C780.916 149.24 781.199 149.341 781.412 149.544C781.636 149.747 781.748 150.008 781.748 150.328C781.748 150.648 781.636 150.904 781.412 151.096C781.199 151.288 780.916 151.384 780.564 151.384ZM785.119 161L782.255 152.68H784.351L786.303 159.176H786.463L788.399 152.68H790.495L787.615 161H785.119ZM793.095 161.16C792.69 161.16 792.316 161.101 791.975 160.984C791.634 160.867 791.34 160.701 791.095 160.488C790.86 160.275 790.674 160.019 790.535 159.72C790.396 159.411 790.327 159.069 790.327 158.696V158.552C790.327 157.645 790.711 156.973 791.479 156.536C792.247 156.088 793.431 155.864 795.031 155.864H795.687V155.496C795.687 155.08 795.554 154.755 795.287 154.52C795.031 154.275 794.647 154.152 794.135 154.152H794.055C793.639 154.152 793.212 154.221 792.775 154.36C792.348 154.499 791.938 154.707 791.543 154.984L790.727 153.576C791.239 153.245 791.788 152.984 792.375 152.792C792.962 152.6 793.564 152.504 794.183 152.504H794.327C794.828 152.504 795.282 152.573 795.687 152.712C796.092 152.851 796.434 153.053 796.711 153.32C796.999 153.576 797.212 153.891 797.351 154.264C797.5 154.637 797.575 155.059 797.575 155.528V159.288C797.575 159.576 797.602 159.869 797.655 160.168C797.719 160.456 797.788 160.733 797.863 161H795.975C795.932 160.883 795.89 160.739 795.847 160.568C795.815 160.387 795.788 160.211 795.767 160.04C795.415 160.392 795.01 160.669 794.551 160.872C794.092 161.064 793.607 161.16 793.095 161.16ZM793.511 159.56C793.938 159.56 794.338 159.469 794.711 159.288C795.095 159.107 795.42 158.856 795.687 158.536V157.144H795.207C794.183 157.144 793.431 157.251 792.951 157.464C792.482 157.667 792.247 157.992 792.247 158.44V158.52C792.247 158.68 792.274 158.824 792.327 158.952C792.391 159.08 792.476 159.187 792.583 159.272C792.7 159.357 792.839 159.427 792.999 159.48C793.159 159.533 793.33 159.56 793.511 159.56ZM801.715 161.08C801.331 161.08 800.99 161.032 800.691 160.936C800.403 160.829 800.158 160.675 799.955 160.472C799.753 160.259 799.593 159.997 799.475 159.688C799.369 159.368 799.315 158.989 799.315 158.552V154.28H798.227V152.936C798.377 152.883 798.547 152.835 798.739 152.792C798.942 152.739 799.134 152.707 799.315 152.696V150.76L801.299 150.52V152.68H803.571V154.28H801.283V158.168C801.283 158.627 801.369 158.941 801.539 159.112C801.71 159.283 801.961 159.368 802.291 159.368C802.377 159.368 802.483 159.368 802.611 159.368C802.739 159.357 802.862 159.347 802.979 159.336C803.107 159.315 803.23 159.293 803.347 159.272C803.475 159.251 803.577 159.224 803.651 159.192V160.76C803.406 160.867 803.091 160.947 802.707 161C802.334 161.053 802.003 161.08 801.715 161.08ZM807.986 161.144C807.378 161.144 806.818 161.048 806.306 160.856C805.805 160.653 805.373 160.376 805.01 160.024C804.658 159.661 804.386 159.229 804.194 158.728C804.002 158.216 803.906 157.656 803.906 157.048V156.728C803.906 156.109 804.002 155.544 804.194 155.032C804.386 154.52 804.658 154.083 805.01 153.72C805.373 153.347 805.799 153.059 806.29 152.856C806.781 152.643 807.33 152.536 807.938 152.536H808.098C808.653 152.536 809.159 152.632 809.618 152.824C810.077 153.005 810.471 153.267 810.802 153.608C811.133 153.949 811.389 154.355 811.57 154.824C811.751 155.293 811.842 155.811 811.842 156.376V157.448H805.874V157.464C805.906 157.773 805.981 158.056 806.098 158.312C806.215 158.557 806.365 158.765 806.546 158.936C806.738 159.107 806.967 159.24 807.234 159.336C807.501 159.432 807.794 159.48 808.114 159.48H808.274C808.775 159.48 809.207 159.379 809.57 159.176C809.943 158.963 810.253 158.707 810.498 158.408L811.586 159.608C811.394 159.843 811.17 160.056 810.914 160.248C810.669 160.44 810.397 160.6 810.098 160.728C809.81 160.856 809.506 160.957 809.186 161.032C808.866 161.107 808.535 161.144 808.194 161.144H807.986ZM805.906 156.12H809.938V156.072C809.927 155.773 809.874 155.501 809.778 155.256C809.693 155.011 809.565 154.803 809.394 154.632C809.234 154.461 809.042 154.328 808.818 154.232C808.594 154.136 808.343 154.088 808.066 154.088H807.922C807.645 154.088 807.394 154.136 807.17 154.232C806.946 154.328 806.749 154.461 806.578 154.632C806.407 154.803 806.263 155.016 806.146 155.272C806.039 155.517 805.959 155.8 805.906 156.12ZM820.067 161.176C819.672 161.176 819.277 161.139 818.883 161.064C818.499 161 818.12 160.904 817.747 160.776C817.384 160.637 817.037 160.472 816.707 160.28C816.376 160.077 816.072 159.859 815.795 159.624L816.963 157.96C817.176 158.184 817.411 158.376 817.667 158.536C817.923 158.685 818.189 158.813 818.467 158.92C818.755 159.027 819.043 159.107 819.331 159.16C819.629 159.213 819.912 159.24 820.179 159.24C820.477 159.24 820.739 159.213 820.963 159.16C821.187 159.096 821.373 159.011 821.523 158.904C821.683 158.797 821.8 158.664 821.875 158.504C821.96 158.333 822.003 158.141 822.003 157.928C822.003 157.597 821.912 157.341 821.731 157.16C821.56 156.968 821.32 156.803 821.011 156.664C820.712 156.515 820.349 156.381 819.923 156.264C819.507 156.136 819.048 155.987 818.547 155.816C818.216 155.688 817.901 155.549 817.603 155.4C817.315 155.24 817.059 155.043 816.835 154.808C816.621 154.563 816.445 154.28 816.307 153.96C816.179 153.629 816.115 153.235 816.115 152.776C816.115 152.307 816.205 151.88 816.387 151.496C816.568 151.112 816.819 150.781 817.139 150.504C817.469 150.216 817.859 149.997 818.307 149.848C818.755 149.688 819.245 149.608 819.779 149.608C820.536 149.608 821.24 149.731 821.891 149.976C822.552 150.211 823.155 150.552 823.699 151L822.563 152.648C822.179 152.275 821.731 151.997 821.219 151.816C820.707 151.635 820.227 151.544 819.779 151.544C819.523 151.544 819.293 151.576 819.091 151.64C818.888 151.693 818.717 151.773 818.579 151.88C818.44 151.987 818.339 152.12 818.275 152.28C818.211 152.429 818.179 152.595 818.179 152.776C818.179 153.043 818.243 153.261 818.371 153.432C818.509 153.592 818.696 153.736 818.931 153.864C819.176 153.992 819.464 154.109 819.795 154.216C820.125 154.312 820.483 154.413 820.867 154.52C821.261 154.637 821.651 154.776 822.035 154.936C822.419 155.096 822.765 155.304 823.075 155.56C823.384 155.805 823.635 156.109 823.827 156.472C824.019 156.835 824.115 157.283 824.115 157.816C824.115 158.328 824.019 158.792 823.827 159.208C823.645 159.624 823.379 159.976 823.027 160.264C822.675 160.552 822.248 160.776 821.747 160.936C821.245 161.096 820.685 161.176 820.067 161.176ZM827.317 161.16C826.911 161.16 826.538 161.101 826.197 160.984C825.855 160.867 825.562 160.701 825.317 160.488C825.082 160.275 824.895 160.019 824.757 159.72C824.618 159.411 824.549 159.069 824.549 158.696V158.552C824.549 157.645 824.933 156.973 825.701 156.536C826.469 156.088 827.653 155.864 829.253 155.864H829.909V155.496C829.909 155.08 829.775 154.755 829.509 154.52C829.253 154.275 828.869 154.152 828.357 154.152H828.277C827.861 154.152 827.434 154.221 826.997 154.36C826.57 154.499 826.159 154.707 825.765 154.984L824.949 153.576C825.461 153.245 826.01 152.984 826.597 152.792C827.183 152.6 827.786 152.504 828.405 152.504H828.549C829.05 152.504 829.503 152.573 829.909 152.712C830.314 152.851 830.655 153.053 830.933 153.32C831.221 153.576 831.434 153.891 831.573 154.264C831.722 154.637 831.797 155.059 831.797 155.528V159.288C831.797 159.576 831.823 159.869 831.877 160.168C831.941 160.456 832.01 160.733 832.085 161H830.197C830.154 160.883 830.111 160.739 830.069 160.568C830.037 160.387 830.01 160.211 829.989 160.04C829.637 160.392 829.231 160.669 828.773 160.872C828.314 161.064 827.829 161.16 827.317 161.16ZM827.733 159.56C828.159 159.56 828.559 159.469 828.933 159.288C829.317 159.107 829.642 158.856 829.909 158.536V157.144H829.429C828.405 157.144 827.653 157.251 827.173 157.464C826.703 157.667 826.469 157.992 826.469 158.44V158.52C826.469 158.68 826.495 158.824 826.549 158.952C826.613 159.08 826.698 159.187 826.805 159.272C826.922 159.357 827.061 159.427 827.221 159.48C827.381 159.533 827.551 159.56 827.733 159.56ZM833.359 161V149.48H835.343V161H833.359ZM840.473 161.144C839.865 161.144 839.305 161.048 838.793 160.856C838.292 160.653 837.86 160.376 837.497 160.024C837.145 159.661 836.873 159.229 836.681 158.728C836.489 158.216 836.393 157.656 836.393 157.048V156.728C836.393 156.109 836.489 155.544 836.681 155.032C836.873 154.52 837.145 154.083 837.497 153.72C837.86 153.347 838.287 153.059 838.777 152.856C839.268 152.643 839.817 152.536 840.425 152.536H840.585C841.14 152.536 841.647 152.632 842.105 152.824C842.564 153.005 842.959 153.267 843.289 153.608C843.62 153.949 843.876 154.355 844.057 154.824C844.239 155.293 844.329 155.811 844.329 156.376V157.448H838.361V157.464C838.393 157.773 838.468 158.056 838.585 158.312C838.703 158.557 838.852 158.765 839.033 158.936C839.225 159.107 839.455 159.24 839.721 159.336C839.988 159.432 840.281 159.48 840.601 159.48H840.761C841.263 159.48 841.695 159.379 842.057 159.176C842.431 158.963 842.74 158.707 842.985 158.408L844.073 159.608C843.881 159.843 843.657 160.056 843.401 160.248C843.156 160.44 842.884 160.6 842.585 160.728C842.297 160.856 841.993 160.957 841.673 161.032C841.353 161.107 841.023 161.144 840.681 161.144H840.473ZM838.393 156.12H842.425V156.072C842.415 155.773 842.361 155.501 842.265 155.256C842.18 155.011 842.052 154.803 841.881 154.632C841.721 154.461 841.529 154.328 841.305 154.232C841.081 154.136 840.831 154.088 840.553 154.088H840.409C840.132 154.088 839.881 154.136 839.657 154.232C839.433 154.328 839.236 154.461 839.065 154.632C838.895 154.803 838.751 155.016 838.633 155.272C838.527 155.517 838.447 155.8 838.393 156.12Z" fill="white"/>
<path d="M788.265 210.489L788.422 208.245C788.509 207.005 789.584 206.07 790.824 206.157L793.068 206.314" stroke="white" stroke-width="0.75"/>
<path d="M786.312 238.421L786.155 240.665C786.069 241.905 787.003 242.98 788.243 243.067L790.488 243.224" stroke="white" stroke-width="0.75"/>
<path d="M821.14 211.024L819.201 238.748L814.246 238.401L815.674 217.967C814.152 218.583 812.398 218.893 810.602 218.767L810.896 214.566C813.625 214.757 815.985 213.009 816.148 210.675L821.14 211.024ZM825.289 234.193L824.942 239.149C824.749 241.915 822.366 243.985 819.601 243.792L819.774 241.314C821.139 241.41 822.366 240.377 822.464 238.976L819.95 238.8L820.297 233.844L825.289 234.193ZM838.897 227.061L838.385 234.387C838.146 237.799 835.149 240.404 831.738 240.166C830.014 240.045 828.481 239.252 827.448 238.025C826.377 236.832 825.805 235.204 825.923 233.516L826.114 230.787L831.106 231.136L830.915 233.865C830.892 234.188 831.014 234.522 831.214 234.752C831.448 235.021 831.761 235.187 832.087 235.174C832.769 235.222 833.348 234.685 833.396 234.003L833.8 228.221C833.85 227.502 833.282 226.849 832.562 226.835C831.946 226.864 831.411 227.296 831.329 227.94C831.329 227.94 831.327 227.976 831.324 228.011L826.333 227.662L828.076 211.509L839.316 212.295L838.967 217.286L832.503 216.834L831.851 223.068C832.516 222.321 833.734 221.937 834.919 222.02C836.463 222.128 838.029 222.959 838.596 224.659C838.831 225.433 838.955 226.235 838.897 227.061ZM840.288 218.101C840.529 214.653 843.523 212.084 846.971 212.325C850.382 212.563 852.99 215.524 852.749 218.972L851.606 235.312C851.368 238.724 848.371 241.329 844.959 241.09C841.512 240.849 838.906 237.852 839.145 234.441L840.288 218.101ZM844.137 234.79C844.089 235.472 844.59 236.048 845.308 236.099C845.991 236.146 846.567 235.645 846.615 234.963L847.757 218.623C847.805 217.941 847.306 217.328 846.624 217.281C845.906 217.23 845.327 217.767 845.279 218.45L844.137 234.79ZM853.509 219.025C853.75 215.577 856.745 213.008 860.192 213.249C863.604 213.488 866.212 216.449 865.971 219.896L864.828 236.237C864.59 239.648 861.592 242.254 858.181 242.015C854.733 241.774 852.128 238.777 852.367 235.365L853.509 219.025ZM857.358 235.714C857.311 236.397 857.812 236.973 858.53 237.023C859.212 237.071 859.789 236.57 859.836 235.888L860.979 219.547C861.027 218.865 860.528 218.253 859.846 218.205C859.128 218.155 858.549 218.692 858.501 219.374L857.358 235.714ZM870.354 237.345L870.008 242.301C869.814 245.066 867.432 247.137 864.667 246.943L864.84 244.465C866.205 244.561 867.432 243.528 867.53 242.127L865.016 241.952L865.363 236.996L870.354 237.345ZM872.132 220.327C872.373 216.88 875.367 214.31 878.815 214.551C882.226 214.79 884.834 217.751 884.593 221.199L883.451 237.539C883.212 240.95 880.215 243.556 876.803 243.317C873.356 243.076 870.75 240.079 870.989 236.667L872.132 220.327ZM875.981 237.016C875.933 237.699 876.434 238.275 877.152 238.325C877.835 238.373 878.411 237.872 878.459 237.19L879.601 220.85C879.649 220.167 879.151 219.555 878.468 219.507C877.75 219.457 877.171 219.994 877.123 220.676L875.981 237.016ZM885.353 221.252C885.594 217.804 888.589 215.235 892.036 215.476C895.448 215.715 898.056 218.676 897.815 222.123L896.672 238.463C896.434 241.875 893.437 244.48 890.025 244.242C886.577 244.001 883.972 241.004 884.211 237.592L885.353 221.252ZM889.202 237.941C889.155 238.623 889.656 239.2 890.374 239.25C891.056 239.298 891.633 238.797 891.68 238.114L892.823 221.774C892.871 221.092 892.372 220.48 891.69 220.432C890.972 220.382 890.393 220.919 890.345 221.601L889.202 237.941ZM898.575 222.176C898.816 218.729 901.81 216.159 905.258 216.4C908.67 216.639 911.278 219.6 911.036 223.048L909.894 239.388C909.655 242.8 906.658 245.405 903.247 245.166C899.799 244.925 897.194 241.928 897.432 238.516L898.575 222.176ZM902.424 238.866C902.376 239.548 902.877 240.124 903.596 240.174C904.278 240.222 904.854 239.721 904.902 239.039L906.045 222.699C906.092 222.016 905.594 221.404 904.911 221.356C904.193 221.306 903.614 221.843 903.567 222.525L902.424 238.866Z" fill="white"/>
<path d="M934.908 220.743L935.065 218.499C935.151 217.259 934.217 216.184 932.977 216.097L930.733 215.94" stroke="white" stroke-width="0.75"/>
<path d="M932.955 248.675L932.798 250.92C932.711 252.159 931.636 253.094 930.396 253.007L928.152 252.85" stroke="white" stroke-width="0.75"/>
<path d="M785.743 328.786L730.723 125.086" stroke="white" stroke-width="2"/>
<circle cx="786.134" cy="330.235" r="7" transform="rotate(-105.115 786.134 330.235)" fill="#2C5AFF" stroke="white" stroke-width="2"/>
<defs>
<clipPath id="clip0_2480_2461">
<rect width="173" height="303" fill="white" transform="translate(750 173)"/>
</clipPath>
</defs>
</svg>
