<svg width="956" height="503" viewBox="0 0 956 503" fill="none" xmlns="http://www.w3.org/2000/svg">
<g clip-path="url(#clip0_2480_2459)">
<mask id="mask0_2480_2459" style="mask-type:luminance" maskUnits="userSpaceOnUse" x="358" y="173" width="174" height="303">
<path d="M532 173H358V476H532V173Z" fill="white"/>
</mask>
<g mask="url(#mask0_2480_2459)">
<path d="M917.081 373.195C916.242 370.427 914.11 367.874 910.875 365.942C907.424 363.89 903.925 361.957 900.403 360.073C886.313 352.51 871.72 345.925 857.102 339.459C827.7 326.456 798.274 313.454 768.128 302.264C759.694 299.139 751.211 296.156 742.632 293.413C738.271 292.005 733.886 290.693 729.453 289.476C728.039 289.094 726.601 288.689 725.163 288.307C724.013 287.925 722.863 287.544 721.665 287.233C717.783 286.16 713.853 285.229 709.947 284.275C701.991 282.319 694.036 280.386 686.104 278.358C678.676 276.473 671.271 274.326 664.298 271.081C658.283 268.266 652.604 264.807 647.236 260.894C636.166 252.83 626.556 242.881 617.57 232.598C608.009 221.695 599.263 209.98 588.839 199.841C583.088 194.234 576.762 189.128 569.765 185.144C566.29 183.164 562.624 181.446 558.838 180.134C555.028 178.821 551.146 178.153 547.168 177.772C545.85 177.652 545.227 179.084 545.514 180.157C545.442 180.396 545.371 180.635 545.347 180.921C545.251 181.661 545.155 182.424 545.083 183.164C545.011 183.879 544.915 184.643 544.915 185.359C544.7 186.48 544.604 187.649 544.508 188.77C544.292 191.228 544.077 193.709 543.861 196.19C543.046 205.71 542.255 215.205 541.513 224.725C541.153 229.401 540.794 234.077 540.41 238.777C540.051 243.119 539.548 247.485 538.11 251.613C535.474 259.248 529.1 264.663 523.133 269.769C519.155 273.181 515.177 276.569 511.2 279.957C509.402 281.484 507.605 282.963 505.664 284.323C505.017 284.776 504.346 285.229 503.675 285.659C493.946 287.901 484.194 290.144 474.465 292.387C454.695 296.968 434.95 301.668 415.253 306.535C409.693 307.919 404.158 309.278 398.623 310.71C396.274 311.306 393.902 311.903 391.53 312.547C386.162 313.597 380.794 314.575 375.403 315.41C368.334 316.484 361.217 317.223 354.076 317.39C350.529 317.462 346.983 317.295 343.412 317.247C342.094 317.247 340.8 317.152 339.482 317.032C336.152 316.054 332.941 314.67 329.801 313.191C322.205 309.589 314.609 305.986 306.821 302.789C304.856 301.978 302.891 301.19 300.926 300.427C298.937 299.664 296.877 298.638 294.768 299.64C291.341 301.262 291.174 305.628 291.629 308.873C292.108 312.356 293.809 316.15 292.659 319.633C291.581 322.901 288.49 325.383 286.069 327.697C283.146 330.488 280.175 333.232 276.82 335.499C275.118 336.644 273.297 337.694 271.428 338.553C270.23 339.101 269.032 339.578 267.834 340.079C266.444 340.223 265.054 340.413 263.664 340.557C259.231 340.986 254.798 341.32 250.365 341.606C248.184 341.75 246.004 341.845 243.847 342.012C242.409 342.131 240.924 342.155 239.462 342.298C237.257 339.316 234.238 336.811 231.339 334.783C225.012 330.321 217.776 327.101 210.802 323.808C195.634 316.603 180.13 310.113 164.698 303.505C149.242 296.872 133.81 290.12 118.857 282.414C104.048 274.779 89.695 266.19 76.515 256.003C69.638 250.706 63.048 245.052 56.195 239.732C52.792 237.083 49.341 234.531 45.747 232.121C42.176 229.735 38.39 227.039 34.293 225.703C32.304 225.059 30.075 224.987 28.086 225.655C26.313 226.252 26.553 228.375 27.871 228.995C28.709 230.856 29.812 232.622 30.77 234.387C32.016 236.654 33.214 238.92 34.413 241.211C36.737 245.553 38.151 250.301 40.883 254.452C42.129 256.337 43.638 258.007 44.908 259.868C45.531 260.775 46.106 261.634 46.346 262.731C46.586 263.828 46.753 264.974 46.897 266.071C47.185 268.266 47.592 270.413 48.982 272.227C50.372 274.016 52.385 274.803 54.613 274.923C57.177 275.042 59.837 274.541 62.401 274.302C62.952 274.254 63.527 274.207 64.102 274.159C63.288 278.597 67.697 283.535 70.261 286.661C73.951 291.146 77.833 295.464 81.787 299.735C89.743 308.348 98.106 316.507 106.804 324.405C124.177 340.151 142.437 354.919 159.738 370.737C164.003 374.626 168.7 378.491 172.198 383.12C172.606 384.074 173.037 385.005 173.277 386.03C173.732 387.987 173.732 390.015 173.564 391.995C173.181 396.6 171.911 401.109 170.928 405.594C169.97 410.032 169.131 414.541 167.669 418.836C166.184 423.226 164.075 427.401 162.182 431.624L155.616 446.177C155.137 447.251 155.305 448.539 156.407 449.183C157.15 449.613 158.252 449.541 158.947 448.969C162.685 449.207 166.328 448.038 169.85 446.726C173.852 445.247 177.806 443.6 181.592 441.596C188.685 437.803 195.083 432.769 200.858 427.186C212.408 416.02 221.514 402.755 232.081 390.731C232.537 390.206 233.016 389.705 233.495 389.204C233.735 388.989 233.95 388.774 234.19 388.583C235.604 387.343 236.946 386.197 238.767 385.577C240.684 384.933 242.745 384.861 244.758 384.694C249.119 384.36 253.528 384.36 257.889 383.955C258.009 383.955 258.105 383.907 258.225 383.907C258.656 384.026 259.063 384.193 259.495 384.432C260.501 385.028 261.46 385.649 262.346 386.388C264.599 388.273 266.755 390.23 268.984 392.138C271.189 394.047 273.441 395.884 275.646 397.793C276.7 398.723 277.778 399.63 278.809 400.608C279.528 401.276 280.27 402.111 281.157 402.564C281.421 403.28 281.157 403.972 280.774 404.616C280.246 405.57 279.671 406.549 279.096 407.479C277.802 409.531 276.317 411.487 274.975 413.491C274.28 414.541 273.585 415.591 272.89 416.617C272.147 417.738 271.213 418.692 270.446 419.79C270.23 420.1 270.134 420.41 270.11 420.697C269.823 421.221 269.847 421.866 270.47 422.414C274.064 425.516 279.839 425.731 284.368 425.206C289.4 424.609 294.121 422.939 298.602 420.649C303.107 418.358 307.3 415.519 311.518 412.752C315.975 409.841 320.384 406.405 325.273 404.258C327.813 403.137 330.568 402.517 333.276 402.039C334.69 401.777 336.08 401.395 337.446 400.966C338.764 400.918 340.082 400.918 341.399 400.966C344.371 401.109 347.342 401.347 350.314 401.634C352.207 401.801 354.196 401.92 356.137 402.159C356.4 403.185 357.167 404.067 357.838 404.855C358.054 405.093 358.269 405.332 358.485 405.57C357.502 406.382 356.76 407.598 356.376 408.72C355.657 410.819 356.52 412.895 358.293 414.136C361.936 416.712 366.393 418.072 369.987 420.768C372.958 422.987 374.492 426.327 375.546 429.787C376.098 431.671 376.529 433.58 376.984 435.489C377.224 436.515 377.439 437.636 377.751 438.686C377.655 439.449 377.895 440.213 378.422 440.833C378.71 441.143 379.021 441.382 379.357 441.549C379.572 441.692 379.812 441.787 380.027 441.811C380.674 441.978 381.393 441.978 382.136 441.811C384.485 441.286 386.761 440.26 388.966 439.306C390.787 438.495 392.56 437.588 394.285 436.586C396.49 436.705 398.551 435.99 400.611 435.25C402.696 434.51 404.733 433.675 406.77 432.793C410.628 431.099 414.39 429.214 418.176 427.329C421.89 425.492 425.629 423.631 429.487 422.104C429.87 421.961 430.229 421.794 430.613 421.627C438.137 423.369 445.781 424.609 453.401 425.874C461.764 427.281 470.127 428.57 478.514 429.739C495.504 432.125 512.542 434.081 529.603 435.584C563.726 438.59 598.017 439.807 632.26 439.234C641.821 439.067 651.358 438.781 660.919 438.328C665.784 438.113 670.648 437.851 675.512 437.54C676.111 437.493 676.711 437.469 677.31 437.421C677.813 437.994 678.388 438.543 678.867 438.972C680.497 440.523 682.294 441.954 684.067 443.362C687.685 446.273 691.448 448.992 695.33 451.569C698.708 453.812 702.686 455.72 705.274 458.917C707.718 461.947 708.677 466.099 712.199 468.246C713.733 469.177 715.746 469.725 717.543 469.439C720.778 469.534 724.133 468.27 726.913 466.767C731.01 464.548 734.557 461.279 737.576 457.772C743.495 450.877 747.712 442.527 749.653 433.652C749.725 433.341 749.773 433.007 749.821 432.673C750.827 432.721 751.81 432.697 752.816 432.673C755.165 432.673 757.513 432.578 759.885 432.459C764.414 432.22 768.919 431.814 773.424 431.313C782.29 430.311 791.085 428.856 799.855 427.234C808.434 425.659 817.012 424.013 825.543 422.176C833.93 420.386 842.293 418.239 850.225 414.947C853.556 413.563 857.246 412.131 859.738 409.412C861.487 407.503 862.518 404.926 862.302 402.397C866.568 402.111 870.833 401.491 875.002 400.584C885.929 398.27 896.856 394.238 906.633 388.822C909.054 387.486 911.354 385.863 913.391 383.979C917.033 380.591 918.111 376.678 917.033 373.123L917.081 373.195Z" fill="#0730AE"/>
</g>
</g>
<path d="M324.314 66.7431L324.157 64.4985C324.07 63.2589 325.005 62.1838 326.245 62.0971L328.489 61.9401" stroke="white" stroke-width="0.75"/>
<path d="M326.267 94.6749L326.424 96.9194C326.511 98.159 327.586 99.0937 328.826 99.007L331.07 98.85" stroke="white" stroke-width="0.75"/>
<path d="M356.943 62.6972L358.882 90.4215L353.926 90.768L352.497 70.3339C351.075 71.1551 349.381 71.7066 347.586 71.8322L347.292 67.6304C350.021 67.4396 352.115 65.3805 351.951 63.0462L356.943 62.6972ZM364.276 85.0641L364.623 90.02C364.816 92.7853 362.745 95.1676 359.98 95.3609L359.807 92.883C361.171 92.7875 362.243 91.5939 362.145 90.1933L359.631 90.3691L359.284 85.4132L364.276 85.0641ZM363.668 67.9649C363.427 64.5174 366.034 61.5562 369.482 61.3152C372.894 61.0766 375.888 63.646 376.129 67.0935L377.272 83.4336C377.51 86.8453 374.905 89.8423 371.493 90.0809C368.046 90.322 365.049 87.7167 364.81 84.305L363.668 67.9649ZM369.802 83.956C369.85 84.6383 370.426 85.1393 371.144 85.0891C371.827 85.0414 372.328 84.465 372.28 83.7827L371.137 67.4426C371.09 66.7603 370.511 66.2233 369.828 66.2711C369.11 66.3213 368.612 66.9335 368.659 67.6159L369.802 83.956ZM376.889 67.0404C376.648 63.5928 379.256 60.6317 382.704 60.3906C386.115 60.152 389.11 62.7214 389.351 66.169L390.493 82.5091C390.732 85.9208 388.127 88.9178 384.715 89.1564C381.267 89.3974 378.27 86.7922 378.032 83.3805L376.889 67.0404ZM383.024 83.0314C383.071 83.7138 383.648 84.2148 384.366 84.1646C385.048 84.1168 385.549 83.5405 385.502 82.8582L384.359 66.5181C384.311 65.8357 383.732 65.2988 383.05 65.3465C382.332 65.3967 381.833 66.009 381.881 66.6913L383.024 83.0314ZM390.111 66.1158C389.87 62.6683 392.478 59.7071 395.925 59.4661C399.337 59.2275 402.331 61.7969 402.572 65.2444L403.715 81.5845C403.954 84.9962 401.348 87.9933 397.937 88.2318C394.489 88.4729 391.492 85.8676 391.253 82.4559L390.111 66.1158ZM396.245 82.1069C396.293 82.7892 396.869 83.2902 397.588 83.24C398.27 83.1923 398.771 82.6159 398.723 81.9336L397.581 65.5935C397.533 64.9112 396.954 64.3742 396.272 64.422C395.553 64.4722 395.055 65.0844 395.103 65.7668L396.245 82.1069ZM409.342 81.9128L409.688 86.8687C409.882 89.634 407.811 92.0163 405.046 92.2096L404.872 89.7317C406.237 89.6362 407.308 88.4426 407.21 87.042L404.697 87.2178L404.35 82.2619L409.342 81.9128ZM408.733 64.8136C408.492 61.3661 411.1 58.4049 414.548 58.1639C417.959 57.9253 420.954 60.4947 421.195 63.9422L422.338 80.2823C422.576 83.694 419.971 86.691 416.559 86.9296C413.112 87.1707 410.115 84.5654 409.876 81.1537L408.733 64.8136ZM414.868 80.8047C414.915 81.487 415.492 81.988 416.21 81.9378C416.892 81.8901 417.393 81.3137 417.346 80.6314L416.203 64.2913C416.155 63.609 415.577 63.072 414.894 63.1197C414.176 63.17 413.677 63.7822 413.725 64.4646L414.868 80.8047ZM421.955 63.8891C421.714 60.4415 424.322 57.4804 427.769 57.2393C431.181 57.0007 434.175 59.5701 434.417 63.0177L435.559 79.3578C435.798 82.7695 433.192 85.7665 429.781 86.0051C426.333 86.2461 423.336 83.6409 423.098 80.2292L421.955 63.8891ZM428.089 79.8801C428.137 80.5625 428.713 81.0635 429.432 81.0133C430.114 80.9655 430.615 80.3892 430.567 79.7069L429.425 63.3668C429.377 62.6844 428.798 62.1475 428.116 62.1952C427.398 62.2454 426.899 62.8577 426.947 63.54L428.089 79.8801ZM435.177 62.9645C434.936 59.517 437.543 56.5558 440.991 56.3148C444.403 56.0762 447.397 58.6456 447.638 62.0931L448.781 78.4332C449.019 81.8449 446.414 84.842 443.002 85.0805C439.555 85.3216 436.558 82.7163 436.319 79.3046L435.177 62.9645ZM441.311 78.9556C441.359 79.6379 441.935 80.1389 442.653 80.0887C443.336 80.041 443.837 79.4646 443.789 78.7823L442.646 62.4422C442.599 61.7599 442.02 61.2229 441.337 61.2707C440.619 61.3209 440.121 61.9331 440.168 62.6155L441.311 78.9556Z" fill="white"/>
<path d="M470.956 56.489L470.799 54.2445C470.712 53.0049 469.637 52.0703 468.398 52.157L466.153 52.3139" stroke="white" stroke-width="0.75"/>
<path d="M472.909 84.4208L473.066 86.6653C473.152 87.9049 472.218 88.9801 470.978 89.0667L468.734 89.2237" stroke="white" stroke-width="0.75"/>
<path d="M377 338L377 127" stroke="white" stroke-width="2"/>
<circle cx="377" cy="339.5" r="7" transform="rotate(-90 377 339.5)" fill="#2C5AFF" stroke="white" stroke-width="2"/>
<path d="M418.136 155.376H401.48V145.584C401.48 142.512 402.68 139.536 404.792 137.328L406.28 135.744L408.44 133.488L409.832 132C410.888 130.896 411.464 129.408 411.464 127.872V125.952C411.464 125.472 411.272 125.088 410.984 124.752C410.696 124.464 410.264 124.272 409.784 124.272C409.64 124.272 409.496 124.32 409.4 124.368C409.352 124.368 409.352 124.368 409.352 124.368H409.304H409.256C409.016 124.464 408.824 124.608 408.632 124.8C408.344 125.088 408.152 125.52 408.152 125.952V130.8H401.48V125.904C401.576 121.44 405.224 117.648 409.736 117.648C412.04 117.6 414.152 118.56 415.688 120.048C417.176 121.536 418.088 123.6 418.136 125.856V128.16C418.136 131.232 416.936 134.16 414.824 136.416L411.944 139.44L409.784 141.696C408.728 142.848 408.152 144.288 408.152 145.824V148.704H418.136V155.376ZM419.152 125.952C419.152 121.344 422.896 117.648 427.504 117.648C432.064 117.648 435.808 121.344 435.808 125.952V147.792C435.808 152.352 432.064 156.096 427.504 156.096C422.896 156.096 419.152 152.352 419.152 147.792V125.952ZM425.824 147.792C425.824 148.704 426.544 149.424 427.504 149.424C428.416 149.424 429.136 148.704 429.136 147.792V125.952C429.136 125.04 428.416 124.272 427.504 124.272C426.544 124.272 425.824 125.04 425.824 125.952V147.792ZM445.896 121.248C448.584 121.248 450.616 122.192 451.992 124.08C453.4 125.936 454.104 128.56 454.104 131.952C454.104 135.344 453.448 138 452.136 139.92C450.824 141.808 448.744 142.752 445.896 142.752C444.136 142.752 442.648 142.32 441.432 141.456C440.248 140.592 439.352 139.36 438.744 137.76C438.136 136.128 437.832 134.192 437.832 131.952C437.832 128.56 438.472 125.936 439.752 124.08C441.032 122.192 443.08 121.248 445.896 121.248ZM445.944 126.144C445.176 126.144 444.616 126.624 444.264 127.584C443.912 128.544 443.736 130.016 443.736 132C443.736 133.952 443.912 135.424 444.264 136.416C444.616 137.408 445.176 137.904 445.944 137.904C446.712 137.904 447.272 137.408 447.624 136.416C448.008 135.424 448.2 133.952 448.2 132C448.2 130.016 448.008 128.544 447.624 127.584C447.272 126.624 446.712 126.144 445.944 126.144ZM470.232 121.728L451.224 156H445.608L464.616 121.728H470.232ZM469.896 134.928C471.688 134.928 473.192 135.36 474.408 136.224C475.624 137.056 476.536 138.272 477.144 139.872C477.784 141.44 478.104 143.36 478.104 145.632C478.104 149.024 477.448 151.68 476.136 153.6C474.824 155.488 472.744 156.432 469.896 156.432C468.136 156.432 466.648 156 465.432 155.136C464.248 154.272 463.352 153.04 462.744 151.44C462.136 149.808 461.832 147.872 461.832 145.632C461.832 142.24 462.472 139.616 463.752 137.76C465.032 135.872 467.08 134.928 469.896 134.928ZM469.944 139.824C469.176 139.824 468.616 140.304 468.264 141.264C467.912 142.224 467.736 143.696 467.736 145.68C467.736 147.632 467.912 149.104 468.264 150.096C468.616 151.088 469.176 151.584 469.944 151.584C470.712 151.584 471.272 151.104 471.624 150.144C472.008 149.152 472.2 147.664 472.2 145.68C472.2 143.696 472.008 142.224 471.624 141.264C471.272 140.304 470.712 139.824 469.944 139.824Z" fill="#2C5AFF"/>
<path d="M402.312 192V180.8H404.408V190.144H408.616V192H402.312ZM409.636 192V183.68H411.62V192H409.636ZM410.612 182.384C410.271 182.384 409.994 182.288 409.78 182.096C409.567 181.904 409.46 181.648 409.46 181.328C409.46 181.008 409.567 180.747 409.78 180.544C409.994 180.342 410.271 180.24 410.612 180.24C410.964 180.24 411.247 180.342 411.46 180.544C411.684 180.747 411.796 181.008 411.796 181.328C411.796 181.648 411.684 181.904 411.46 182.096C411.247 182.288 410.964 182.384 410.612 182.384ZM418.959 195.2V191.184C418.639 191.494 418.271 191.734 417.855 191.904C417.45 192.064 416.996 192.144 416.495 192.144H416.351C415.807 192.144 415.306 192.048 414.847 191.856C414.399 191.654 414.01 191.371 413.679 191.008C413.359 190.646 413.108 190.219 412.927 189.728C412.756 189.227 412.671 188.678 412.671 188.08V187.6C412.671 187.003 412.756 186.454 412.927 185.952C413.108 185.451 413.359 185.024 413.679 184.672C414.01 184.31 414.399 184.032 414.847 183.84C415.306 183.638 415.807 183.536 416.351 183.536H416.495C417.039 183.536 417.535 183.638 417.983 183.84C418.431 184.032 418.82 184.31 419.151 184.672C419.172 184.502 419.199 184.326 419.231 184.144C419.274 183.963 419.322 183.808 419.375 183.68H420.943V195.2H418.959ZM416.783 190.56H416.911C417.22 190.56 417.503 190.502 417.759 190.384C418.015 190.267 418.228 190.096 418.399 189.872C418.58 189.638 418.719 189.366 418.815 189.056C418.911 188.736 418.959 188.384 418.959 188V187.616C418.959 187.243 418.911 186.902 418.815 186.592C418.719 186.283 418.58 186.022 418.399 185.808C418.218 185.584 417.999 185.414 417.743 185.296C417.498 185.179 417.22 185.12 416.911 185.12H416.783C416.474 185.12 416.191 185.179 415.935 185.296C415.69 185.414 415.476 185.584 415.295 185.808C415.124 186.022 414.986 186.283 414.879 186.592C414.783 186.902 414.735 187.243 414.735 187.616V188C414.735 188.395 414.783 188.752 414.879 189.072C414.986 189.382 415.124 189.648 415.295 189.872C415.476 190.096 415.69 190.267 415.935 190.384C416.191 190.502 416.474 190.56 416.783 190.56ZM425.2 192.16C424.282 192.16 423.584 191.888 423.104 191.344C422.634 190.8 422.4 190.022 422.4 189.008V183.68H424.384V188.592C424.384 189.2 424.501 189.659 424.736 189.968C424.97 190.278 425.349 190.432 425.872 190.432H425.936C426.234 190.432 426.506 190.384 426.752 190.288C426.997 190.182 427.205 190.032 427.376 189.84C427.546 189.638 427.68 189.403 427.776 189.136C427.882 188.859 427.936 188.555 427.936 188.224V183.68H429.92V192H428.352C428.298 191.851 428.245 191.664 428.192 191.44C428.149 191.206 428.122 190.998 428.112 190.816C427.76 191.232 427.344 191.563 426.864 191.808C426.384 192.043 425.856 192.16 425.28 192.16H425.2ZM431.513 192V183.68H433.497V192H431.513ZM432.489 182.384C432.148 182.384 431.87 182.288 431.657 182.096C431.444 181.904 431.337 181.648 431.337 181.328C431.337 181.008 431.444 180.747 431.657 180.544C431.87 180.342 432.148 180.24 432.489 180.24C432.841 180.24 433.124 180.342 433.337 180.544C433.561 180.747 433.673 181.008 433.673 181.328C433.673 181.648 433.561 181.904 433.337 182.096C433.124 182.288 432.841 182.384 432.489 182.384ZM438.228 192.144C437.684 192.144 437.183 192.048 436.724 191.856C436.276 191.654 435.887 191.371 435.556 191.008C435.236 190.646 434.985 190.219 434.804 189.728C434.633 189.227 434.548 188.678 434.548 188.08V187.6C434.548 187.003 434.633 186.454 434.804 185.952C434.985 185.451 435.236 185.024 435.556 184.672C435.887 184.31 436.276 184.032 436.724 183.84C437.183 183.638 437.684 183.536 438.228 183.536H438.372C438.873 183.536 439.327 183.622 439.732 183.792C440.148 183.952 440.516 184.187 440.836 184.496V180.48H442.82V192H441.252C441.199 191.872 441.151 191.723 441.108 191.552C441.076 191.371 441.049 191.195 441.028 191.024C440.697 191.376 440.308 191.654 439.86 191.856C439.412 192.048 438.911 192.144 438.356 192.144H438.228ZM438.66 190.56H438.788C439.097 190.56 439.38 190.502 439.636 190.384C439.892 190.267 440.105 190.096 440.276 189.872C440.457 189.638 440.596 189.366 440.692 189.056C440.788 188.736 440.836 188.384 440.836 188V187.616C440.836 187.243 440.788 186.902 440.692 186.592C440.596 186.283 440.457 186.022 440.276 185.808C440.095 185.584 439.876 185.414 439.62 185.296C439.375 185.179 439.097 185.12 438.788 185.12H438.66C438.351 185.12 438.068 185.179 437.812 185.296C437.567 185.414 437.353 185.584 437.172 185.808C437.001 186.022 436.863 186.283 436.756 186.592C436.66 186.902 436.612 187.243 436.612 187.616V188C436.612 188.395 436.66 188.752 436.756 189.072C436.863 189.382 437.001 189.648 437.172 189.872C437.353 190.096 437.567 190.267 437.812 190.384C438.068 190.502 438.351 190.56 438.66 190.56ZM444.483 192V183.68H446.467V192H444.483ZM445.459 182.384C445.118 182.384 444.84 182.288 444.627 182.096C444.414 181.904 444.307 181.648 444.307 181.328C444.307 181.008 444.414 180.747 444.627 180.544C444.84 180.342 445.118 180.24 445.459 180.24C445.811 180.24 446.094 180.342 446.307 180.544C446.531 180.747 446.643 181.008 446.643 181.328C446.643 181.648 446.531 181.904 446.307 182.096C446.094 182.288 445.811 182.384 445.459 182.384ZM450.75 192.08C450.366 192.08 450.025 192.032 449.726 191.936C449.438 191.83 449.193 191.675 448.99 191.472C448.787 191.259 448.627 190.998 448.51 190.688C448.403 190.368 448.35 189.99 448.35 189.552V185.28H447.262V183.936C447.411 183.883 447.582 183.835 447.774 183.792C447.977 183.739 448.169 183.707 448.35 183.696V181.76L450.334 181.52V183.68H452.606V185.28H450.318V189.168C450.318 189.627 450.403 189.942 450.574 190.112C450.745 190.283 450.995 190.368 451.326 190.368C451.411 190.368 451.518 190.368 451.646 190.368C451.774 190.358 451.897 190.347 452.014 190.336C452.142 190.315 452.265 190.294 452.382 190.272C452.51 190.251 452.611 190.224 452.686 190.192V191.76C452.441 191.867 452.126 191.947 451.742 192C451.369 192.054 451.038 192.08 450.75 192.08ZM454.904 195.216C454.68 195.216 454.429 195.195 454.152 195.152C453.875 195.11 453.624 195.03 453.4 194.912V193.216C453.581 193.312 453.768 193.387 453.96 193.44C454.163 193.494 454.36 193.52 454.552 193.52C454.883 193.52 455.187 193.419 455.464 193.216C455.741 193.024 455.971 192.736 456.152 192.352L452.648 183.68H454.744L457.112 190.064H457.224L459.064 183.68H461.064L458.216 192.416C458.077 192.854 457.907 193.243 457.704 193.584C457.501 193.926 457.261 194.214 456.984 194.448C456.717 194.694 456.408 194.88 456.056 195.008C455.715 195.147 455.331 195.216 454.904 195.216ZM467.156 194.816C466.783 194.326 466.447 193.792 466.148 193.216C465.86 192.64 465.615 192.043 465.412 191.424C465.22 190.795 465.071 190.155 464.964 189.504C464.868 188.854 464.82 188.214 464.82 187.584C464.82 186.934 464.874 186.283 464.98 185.632C465.087 184.971 465.236 184.326 465.428 183.696C465.631 183.067 465.876 182.464 466.164 181.888C466.463 181.312 466.794 180.774 467.156 180.272L468.484 181.008C468.218 181.488 467.983 181.995 467.78 182.528C467.578 183.051 467.407 183.59 467.268 184.144C467.14 184.699 467.039 185.264 466.964 185.84C466.9 186.416 466.868 186.992 466.868 187.568C466.868 188.144 466.9 188.72 466.964 189.296C467.039 189.862 467.14 190.422 467.268 190.976C467.407 191.52 467.578 192.054 467.78 192.576C467.983 193.11 468.218 193.616 468.484 194.096L467.156 194.816ZM473.943 192.176C473.154 192.176 472.434 192.043 471.783 191.776C471.132 191.499 470.572 191.115 470.103 190.624C469.644 190.123 469.287 189.531 469.031 188.848C468.775 188.155 468.647 187.387 468.647 186.544V186.24C468.647 185.419 468.775 184.662 469.031 183.968C469.298 183.275 469.66 182.683 470.119 182.192C470.588 181.702 471.143 181.318 471.783 181.04C472.434 180.763 473.138 180.624 473.895 180.624H474.023C474.46 180.624 474.887 180.678 475.303 180.784C475.73 180.891 476.124 181.051 476.487 181.264C476.86 181.467 477.202 181.718 477.511 182.016C477.82 182.304 478.087 182.64 478.311 183.024L476.711 184.16C476.423 183.648 476.06 183.248 475.623 182.96C475.186 182.662 474.663 182.512 474.055 182.512H473.927C473.468 182.512 473.047 182.603 472.663 182.784C472.279 182.955 471.948 183.206 471.671 183.536C471.404 183.856 471.196 184.246 471.047 184.704C470.898 185.163 470.823 185.675 470.823 186.24V186.56C470.823 187.126 470.898 187.638 471.047 188.096C471.196 188.555 471.41 188.944 471.687 189.264C471.964 189.584 472.295 189.835 472.679 190.016C473.063 190.198 473.484 190.288 473.943 190.288H474.119C474.407 190.288 474.679 190.251 474.935 190.176C475.202 190.091 475.447 189.979 475.671 189.84C475.895 189.691 476.098 189.515 476.279 189.312C476.471 189.11 476.636 188.886 476.775 188.64L478.327 189.792C478.103 190.166 477.842 190.502 477.543 190.8C477.244 191.088 476.908 191.339 476.535 191.552C476.172 191.755 475.783 191.91 475.367 192.016C474.951 192.123 474.514 192.176 474.055 192.176H473.943ZM479.351 192V180.8H485.943V182.656H481.447V185.456H485.623V187.216H481.447V190.144H486.103V192H479.351ZM486.48 192L489.856 186.24V186.16L486.704 180.8H489.104L491.232 184.704H491.36L493.52 180.8H495.872L492.736 186.16V186.224L496.096 192H493.696L491.36 187.632H491.232L488.912 192H486.48ZM496.017 193.776L498.609 180.48H500.529L497.921 193.776H496.017ZM501.525 192V180.8H504.517L507.061 187.792H507.173L509.701 180.8H512.693V192H510.645V183.328H510.533L507.925 190.48H506.309L503.685 183.328H503.573V192H501.525ZM514.697 192V180.8H517.689L520.233 187.792H520.345L522.873 180.8H525.865V192H523.817V183.328H523.705L521.097 190.48H519.481L516.857 183.328H516.745V192H514.697ZM528.174 194.816L526.846 194.096C527.112 193.616 527.347 193.11 527.55 192.576C527.752 192.054 527.918 191.52 528.046 190.976C528.184 190.422 528.286 189.862 528.35 189.296C528.424 188.72 528.462 188.144 528.462 187.568C528.462 186.992 528.424 186.416 528.35 185.84C528.286 185.264 528.184 184.699 528.046 184.144C527.907 183.59 527.736 183.051 527.534 182.528C527.342 181.995 527.112 181.488 526.846 181.008L528.174 180.272C528.536 180.774 528.862 181.312 529.15 181.888C529.448 182.464 529.694 183.067 529.886 183.696C530.088 184.326 530.243 184.971 530.35 185.632C530.456 186.283 530.51 186.934 530.51 187.584C530.51 188.214 530.456 188.854 530.35 189.504C530.243 190.155 530.088 190.795 529.886 191.424C529.694 192.043 529.448 192.64 529.15 193.216C528.862 193.792 528.536 194.326 528.174 194.816Z" fill="white"/>
<defs>
<clipPath id="clip0_2480_2459">
<rect width="174" height="303" fill="white" transform="translate(358 173)"/>
</clipPath>
</defs>
</svg>
