<svg width="956" height="503" viewBox="0 0 956 503" fill="none" xmlns="http://www.w3.org/2000/svg">
<g clip-path="url(#clip0_2479_2458)">
<mask id="mask0_2479_2458" style="mask-type:luminance" maskUnits="userSpaceOnUse" x="22" y="173" width="336" height="303">
<path d="M358 173H22V476H358V173Z" fill="white"/>
</mask>
<g mask="url(#mask0_2479_2458)">
<path d="M917.081 373.195C916.243 370.427 914.11 367.874 910.875 365.942C907.424 363.89 903.926 361.957 900.403 360.073C886.313 352.51 871.72 345.925 857.102 339.459C827.7 326.456 798.274 313.454 768.129 302.264C759.694 299.139 751.211 296.156 742.632 293.413C738.271 292.005 733.886 290.693 729.453 289.476C728.039 289.094 726.601 288.689 725.163 288.307C724.013 287.925 722.863 287.544 721.665 287.233C717.783 286.16 713.853 285.229 709.947 284.275C701.991 282.319 694.036 280.386 686.104 278.358C678.676 276.473 671.271 274.326 664.298 271.081C658.283 268.266 652.604 264.807 647.237 260.894C636.166 252.83 626.557 242.881 617.571 232.598C608.009 221.695 599.263 209.98 588.839 199.841C583.088 194.234 576.762 189.128 569.765 185.144C566.29 183.164 562.624 181.446 558.838 180.134C555.028 178.821 551.146 178.153 547.168 177.772C545.85 177.652 545.227 179.084 545.515 180.157C545.443 180.396 545.371 180.635 545.347 180.921C545.251 181.661 545.155 182.424 545.083 183.164C545.011 183.879 544.916 184.643 544.916 185.359C544.7 186.48 544.604 187.649 544.508 188.77C544.293 191.228 544.077 193.709 543.861 196.19C543.046 205.71 542.256 215.205 541.513 224.725C541.153 229.401 540.794 234.077 540.411 238.777C540.051 243.119 539.548 247.485 538.11 251.613C535.474 259.248 529.1 264.663 523.133 269.769C519.156 273.181 515.178 276.569 511.2 279.957C509.403 281.484 507.605 282.963 505.665 284.323C505.018 284.776 504.347 285.229 503.676 285.659C493.947 287.901 484.194 290.144 474.465 292.387C454.696 296.968 434.95 301.668 415.253 306.535C409.694 307.919 404.158 309.278 398.623 310.71C396.274 311.306 393.902 311.903 391.53 312.547C386.162 313.597 380.795 314.575 375.403 315.41C368.334 316.484 361.217 317.223 354.076 317.39C350.53 317.462 346.983 317.295 343.413 317.247C342.095 317.247 340.801 317.152 339.483 317.032C336.152 316.054 332.941 314.67 329.802 313.191C322.206 309.589 314.609 305.986 306.822 302.789C304.857 301.978 302.892 301.19 300.927 300.427C298.938 299.664 296.877 298.638 294.768 299.64C291.342 301.262 291.174 305.628 291.629 308.873C292.108 312.356 293.81 316.15 292.659 319.633C291.581 322.901 288.49 325.383 286.07 327.697C283.146 330.488 280.175 333.232 276.82 335.499C275.119 336.644 273.298 337.694 271.428 338.553C270.23 339.101 269.032 339.578 267.834 340.079C266.444 340.223 265.054 340.413 263.665 340.557C259.231 340.986 254.798 341.32 250.365 341.606C248.185 341.75 246.004 341.845 243.847 342.012C242.41 342.131 240.924 342.155 239.462 342.298C237.258 339.316 234.238 336.811 231.339 334.783C225.013 330.321 217.776 327.101 210.803 323.808C195.634 316.603 180.13 310.113 164.698 303.505C149.242 296.872 133.81 290.12 118.858 282.414C104.049 274.779 89.6949 266.19 76.5154 256.003C69.6381 250.706 63.0483 245.052 56.195 239.732C52.7922 237.083 49.3416 234.531 45.7472 232.121C42.1767 229.735 38.3906 227.039 34.293 225.703C32.3041 225.059 30.0755 224.987 28.0866 225.655C26.3134 226.252 26.553 228.375 27.871 228.995C28.7097 230.856 29.812 232.622 30.7705 234.387C32.0165 236.654 33.2147 238.92 34.4128 241.211C36.7372 245.553 38.151 250.301 40.8827 254.452C42.1288 256.337 43.6385 258.007 44.9085 259.868C45.5315 260.775 46.1066 261.634 46.3463 262.731C46.5859 263.828 46.7536 264.974 46.8974 266.071C47.185 268.266 47.5923 270.413 48.9822 272.227C50.372 274.016 52.3849 274.803 54.6134 274.923C57.1774 275.042 59.8373 274.541 62.4013 274.302C62.9525 274.254 63.5276 274.207 64.1027 274.159C63.2879 278.597 67.6971 283.535 70.2611 286.661C73.9514 291.146 77.8333 295.464 81.7872 299.735C89.7428 308.348 98.1058 316.507 106.804 324.405C124.177 340.151 142.437 354.919 159.738 370.737C164.003 374.626 168.7 378.491 172.199 383.12C172.606 384.074 173.037 385.005 173.277 386.03C173.732 387.987 173.732 390.015 173.565 391.995C173.181 396.6 171.911 401.109 170.929 405.594C169.97 410.032 169.131 414.541 167.67 418.836C166.184 423.226 164.075 427.401 162.182 431.624L155.616 446.177C155.137 447.251 155.305 448.539 156.407 449.183C157.15 449.613 158.252 449.541 158.947 448.969C162.685 449.207 166.328 448.038 169.85 446.726C173.852 445.247 177.806 443.6 181.592 441.596C188.685 437.803 195.083 432.769 200.858 427.186C212.408 416.02 221.514 402.755 232.082 390.731C232.537 390.206 233.016 389.705 233.495 389.204C233.735 388.989 233.951 388.774 234.19 388.583C235.604 387.343 236.946 386.197 238.767 385.577C240.684 384.933 242.745 384.861 244.758 384.694C249.119 384.36 253.528 384.36 257.89 383.955C258.009 383.955 258.105 383.907 258.225 383.907C258.656 384.026 259.064 384.193 259.495 384.432C260.501 385.028 261.46 385.649 262.347 386.388C264.599 388.273 266.756 390.23 268.984 392.138C271.189 394.047 273.441 395.884 275.646 397.793C276.7 398.723 277.779 399.63 278.809 400.608C279.528 401.276 280.271 402.111 281.157 402.564C281.421 403.28 281.157 403.972 280.774 404.616C280.247 405.57 279.672 406.549 279.097 407.479C277.803 409.531 276.317 411.487 274.975 413.491C274.28 414.541 273.585 415.591 272.89 416.617C272.147 417.738 271.213 418.692 270.446 419.79C270.23 420.1 270.135 420.41 270.111 420.697C269.823 421.221 269.847 421.866 270.47 422.414C274.064 425.516 279.839 425.731 284.368 425.206C289.401 424.609 294.121 422.939 298.602 420.649C303.107 418.358 307.301 415.519 311.518 412.752C315.975 409.841 320.384 406.405 325.273 404.258C327.813 403.137 330.569 402.517 333.276 402.039C334.69 401.777 336.08 401.395 337.446 400.966C338.764 400.918 340.082 400.918 341.4 400.966C344.371 401.109 347.343 401.347 350.314 401.634C352.207 401.801 354.196 401.92 356.137 402.159C356.4 403.185 357.167 404.067 357.838 404.855C358.054 405.093 358.27 405.332 358.485 405.57C357.503 406.382 356.76 407.598 356.376 408.72C355.658 410.819 356.52 412.895 358.294 414.136C361.936 416.712 366.393 418.072 369.987 420.768C372.959 422.987 374.492 426.327 375.547 429.787C376.098 431.671 376.529 433.58 376.984 435.489C377.224 436.515 377.44 437.636 377.751 438.686C377.655 439.449 377.895 440.213 378.422 440.833C378.71 441.143 379.021 441.382 379.357 441.549C379.572 441.692 379.812 441.787 380.028 441.811C380.675 441.978 381.394 441.978 382.136 441.811C384.485 441.286 386.761 440.26 388.966 439.306C390.787 438.495 392.56 437.588 394.286 436.586C396.49 436.705 398.551 435.99 400.612 435.25C402.697 434.51 404.733 433.675 406.77 432.793C410.628 431.099 414.39 429.214 418.176 427.329C421.891 425.492 425.629 423.631 429.487 422.104C429.87 421.961 430.23 421.794 430.613 421.627C438.137 423.369 445.782 424.609 453.402 425.874C461.765 427.281 470.128 428.57 478.515 429.739C495.504 432.125 512.542 434.081 529.603 435.584C563.726 438.59 598.017 439.807 632.26 439.234C641.821 439.067 651.358 438.781 660.919 438.328C665.784 438.113 670.648 437.851 675.513 437.54C676.112 437.493 676.711 437.469 677.31 437.421C677.813 437.994 678.388 438.543 678.867 438.972C680.497 440.523 682.294 441.954 684.067 443.362C687.686 446.273 691.448 448.992 695.33 451.569C698.709 453.812 702.686 455.72 705.274 458.917C707.719 461.947 708.677 466.099 712.2 468.246C713.733 469.177 715.746 469.725 717.543 469.439C720.778 469.534 724.133 468.27 726.913 466.767C731.01 464.548 734.557 461.279 737.576 457.772C743.495 450.877 747.712 442.527 749.653 433.652C749.725 433.341 749.773 433.007 749.821 432.673C750.828 432.721 751.81 432.697 752.817 432.673C755.165 432.673 757.513 432.578 759.886 432.459C764.414 432.22 768.919 431.814 773.424 431.313C782.291 430.311 791.085 428.856 799.855 427.234C808.434 425.659 817.013 424.013 825.543 422.176C833.93 420.386 842.293 418.239 850.225 414.947C853.556 413.563 857.246 412.131 859.738 409.412C861.488 407.503 862.518 404.926 862.302 402.397C866.568 402.111 870.833 401.491 875.003 400.584C885.93 398.27 896.857 394.238 906.634 388.822C909.054 387.486 911.354 385.863 913.391 383.979C917.033 380.591 918.112 376.678 917.033 373.123L917.081 373.195Z" fill="#0E41DA"/>
</g>
</g>
<path d="M166.776 91.32V128.376H160.152V101.064C158.184 102.024 155.88 102.6 153.48 102.6V96.984C157.128 96.984 160.104 94.44 160.104 91.32H166.776ZM184.433 111V120.792C184.433 125.352 180.689 129.096 176.129 129.096C173.825 129.096 171.713 128.184 170.225 126.648C168.689 125.16 167.777 123.048 167.777 120.792V117.144H174.449V120.792C174.449 121.224 174.641 121.656 174.929 121.944C175.265 122.28 175.697 122.472 176.129 122.424C177.041 122.424 177.761 121.656 177.761 120.744V113.016C177.761 112.056 176.945 111.24 175.985 111.288C175.169 111.384 174.497 112.008 174.449 112.872C174.449 112.872 174.449 112.92 174.449 112.968H167.777L168.593 91.32H183.617V97.992H174.977L174.689 106.344C175.505 105.288 177.089 104.664 178.673 104.664C180.737 104.664 182.897 105.624 183.809 107.832C184.193 108.84 184.433 109.896 184.433 111ZM194.521 94.248C197.209 94.248 199.241 95.192 200.617 97.08C202.025 98.936 202.729 101.56 202.729 104.952C202.729 108.344 202.073 111 200.761 112.92C199.449 114.808 197.369 115.752 194.521 115.752C192.761 115.752 191.273 115.32 190.057 114.456C188.873 113.592 187.977 112.36 187.369 110.76C186.761 109.128 186.457 107.192 186.457 104.952C186.457 101.56 187.097 98.936 188.377 97.08C189.657 95.192 191.705 94.248 194.521 94.248ZM194.569 99.144C193.801 99.144 193.241 99.624 192.889 100.584C192.537 101.544 192.361 103.016 192.361 105C192.361 106.952 192.537 108.424 192.889 109.416C193.241 110.408 193.801 110.904 194.569 110.904C195.337 110.904 195.897 110.408 196.249 109.416C196.633 108.424 196.825 106.952 196.825 105C196.825 103.016 196.633 101.544 196.249 100.584C195.897 99.624 195.337 99.144 194.569 99.144ZM218.857 94.728L199.849 129H194.233L213.241 94.728H218.857ZM218.521 107.928C220.313 107.928 221.817 108.36 223.033 109.224C224.249 110.056 225.161 111.272 225.769 112.872C226.409 114.44 226.729 116.36 226.729 118.632C226.729 122.024 226.073 124.68 224.761 126.6C223.449 128.488 221.369 129.432 218.521 129.432C216.761 129.432 215.273 129 214.057 128.136C212.873 127.272 211.977 126.04 211.369 124.44C210.761 122.808 210.457 120.872 210.457 118.632C210.457 115.24 211.097 112.616 212.377 110.76C213.657 108.872 215.705 107.928 218.521 107.928ZM218.569 112.824C217.801 112.824 217.241 113.304 216.889 114.264C216.537 115.224 216.361 116.696 216.361 118.68C216.361 120.632 216.537 122.104 216.889 123.096C217.241 124.088 217.801 124.584 218.569 124.584C219.337 124.584 219.897 124.104 220.249 123.144C220.633 122.152 220.825 120.664 220.825 118.68C220.825 116.696 220.633 115.224 220.249 114.264C219.897 113.304 219.337 112.824 218.569 112.824Z" fill="#2C5AFF"/>
<path d="M154.312 165V153.8H158.088C158.696 153.8 159.245 153.885 159.736 154.056C160.227 154.216 160.648 154.451 161 154.76C161.352 155.069 161.624 155.448 161.816 155.896C162.008 156.344 162.104 156.845 162.104 157.4V157.608C162.104 158.163 162.008 158.669 161.816 159.128C161.624 159.576 161.352 159.96 161 160.28C160.659 160.589 160.243 160.829 159.752 161C159.261 161.171 158.712 161.256 158.104 161.256H156.408V165H154.312ZM156.36 159.528H157.896C158.227 159.528 158.52 159.485 158.776 159.4C159.032 159.315 159.251 159.192 159.432 159.032C159.613 158.861 159.752 158.664 159.848 158.44C159.955 158.205 160.008 157.939 160.008 157.64V157.432C160.008 157.155 159.96 156.904 159.864 156.68C159.768 156.445 159.629 156.253 159.448 156.104C159.277 155.955 159.064 155.843 158.808 155.768C158.552 155.683 158.264 155.64 157.944 155.64H156.36V159.528ZM163.183 165V156.68H164.735C164.788 156.84 164.836 157.021 164.879 157.224C164.932 157.427 164.97 157.619 164.991 157.8C165.29 157.448 165.647 157.176 166.063 156.984C166.49 156.781 166.964 156.68 167.487 156.68H167.695V158.584C167.62 158.563 167.524 158.547 167.407 158.536C167.3 158.525 167.194 158.52 167.087 158.52C166.767 158.52 166.49 158.563 166.255 158.648C166.02 158.733 165.818 158.867 165.647 159.048C165.487 159.219 165.364 159.437 165.279 159.704C165.204 159.96 165.167 160.259 165.167 160.6V165H163.183ZM168.59 165V156.68H170.574V165H168.59ZM169.566 155.384C169.225 155.384 168.947 155.288 168.734 155.096C168.521 154.904 168.414 154.648 168.414 154.328C168.414 154.008 168.521 153.747 168.734 153.544C168.947 153.341 169.225 153.24 169.566 153.24C169.918 153.24 170.201 153.341 170.414 153.544C170.638 153.747 170.75 154.008 170.75 154.328C170.75 154.648 170.638 154.904 170.414 155.096C170.201 155.288 169.918 155.384 169.566 155.384ZM174.121 165L171.257 156.68H173.353L175.305 163.176H175.465L177.401 156.68H179.497L176.617 165H174.121ZM182.097 165.16C181.692 165.16 181.318 165.101 180.977 164.984C180.636 164.867 180.342 164.701 180.097 164.488C179.862 164.275 179.676 164.019 179.537 163.72C179.398 163.411 179.329 163.069 179.329 162.696V162.552C179.329 161.645 179.713 160.973 180.481 160.536C181.249 160.088 182.433 159.864 184.033 159.864H184.689V159.496C184.689 159.08 184.556 158.755 184.289 158.52C184.033 158.275 183.649 158.152 183.137 158.152H183.057C182.641 158.152 182.214 158.221 181.777 158.36C181.35 158.499 180.94 158.707 180.545 158.984L179.729 157.576C180.241 157.245 180.79 156.984 181.377 156.792C181.964 156.6 182.566 156.504 183.185 156.504H183.329C183.83 156.504 184.284 156.573 184.689 156.712C185.094 156.851 185.436 157.053 185.713 157.32C186.001 157.576 186.214 157.891 186.353 158.264C186.502 158.637 186.577 159.059 186.577 159.528V163.288C186.577 163.576 186.604 163.869 186.657 164.168C186.721 164.456 186.79 164.733 186.865 165H184.977C184.934 164.883 184.892 164.739 184.849 164.568C184.817 164.387 184.79 164.211 184.769 164.04C184.417 164.392 184.012 164.669 183.553 164.872C183.094 165.064 182.609 165.16 182.097 165.16ZM182.513 163.56C182.94 163.56 183.34 163.469 183.713 163.288C184.097 163.107 184.422 162.856 184.689 162.536V161.144H184.209C183.185 161.144 182.433 161.251 181.953 161.464C181.484 161.667 181.249 161.992 181.249 162.44V162.52C181.249 162.68 181.276 162.824 181.329 162.952C181.393 163.08 181.478 163.187 181.585 163.272C181.702 163.357 181.841 163.427 182.001 163.48C182.161 163.533 182.332 163.56 182.513 163.56ZM190.717 165.08C190.333 165.08 189.992 165.032 189.693 164.936C189.405 164.829 189.16 164.675 188.957 164.472C188.755 164.259 188.595 163.997 188.477 163.688C188.371 163.368 188.317 162.989 188.317 162.552V158.28H187.229V156.936C187.379 156.883 187.549 156.835 187.741 156.792C187.944 156.739 188.136 156.707 188.317 156.696V154.76L190.301 154.52V156.68H192.573V158.28H190.285V162.168C190.285 162.627 190.371 162.941 190.541 163.112C190.712 163.283 190.963 163.368 191.293 163.368C191.379 163.368 191.485 163.368 191.613 163.368C191.741 163.357 191.864 163.347 191.981 163.336C192.109 163.315 192.232 163.293 192.349 163.272C192.477 163.251 192.579 163.224 192.653 163.192V164.76C192.408 164.867 192.093 164.947 191.709 165C191.336 165.053 191.005 165.08 190.717 165.08ZM196.988 165.144C196.38 165.144 195.82 165.048 195.308 164.856C194.807 164.653 194.375 164.376 194.012 164.024C193.66 163.661 193.388 163.229 193.196 162.728C193.004 162.216 192.908 161.656 192.908 161.048V160.728C192.908 160.109 193.004 159.544 193.196 159.032C193.388 158.52 193.66 158.083 194.012 157.72C194.375 157.347 194.801 157.059 195.292 156.856C195.783 156.643 196.332 156.536 196.94 156.536H197.1C197.655 156.536 198.161 156.632 198.62 156.824C199.079 157.005 199.473 157.267 199.804 157.608C200.135 157.949 200.391 158.355 200.572 158.824C200.753 159.293 200.844 159.811 200.844 160.376V161.448H194.876V161.464C194.908 161.773 194.983 162.056 195.1 162.312C195.217 162.557 195.367 162.765 195.548 162.936C195.74 163.107 195.969 163.24 196.236 163.336C196.503 163.432 196.796 163.48 197.116 163.48H197.276C197.777 163.48 198.209 163.379 198.572 163.176C198.945 162.963 199.255 162.707 199.5 162.408L200.588 163.608C200.396 163.843 200.172 164.056 199.916 164.248C199.671 164.44 199.399 164.6 199.1 164.728C198.812 164.856 198.508 164.957 198.188 165.032C197.868 165.107 197.537 165.144 197.196 165.144H196.988ZM194.908 160.12H198.94V160.072C198.929 159.773 198.876 159.501 198.78 159.256C198.695 159.011 198.567 158.803 198.396 158.632C198.236 158.461 198.044 158.328 197.82 158.232C197.596 158.136 197.345 158.088 197.068 158.088H196.924C196.647 158.088 196.396 158.136 196.172 158.232C195.948 158.328 195.751 158.461 195.58 158.632C195.409 158.803 195.265 159.016 195.148 159.272C195.041 159.517 194.961 159.8 194.908 160.12ZM209.069 165.176C208.674 165.176 208.279 165.139 207.885 165.064C207.501 165 207.122 164.904 206.749 164.776C206.386 164.637 206.039 164.472 205.709 164.28C205.378 164.077 205.074 163.859 204.797 163.624L205.965 161.96C206.178 162.184 206.413 162.376 206.669 162.536C206.925 162.685 207.191 162.813 207.469 162.92C207.757 163.027 208.045 163.107 208.333 163.16C208.631 163.213 208.914 163.24 209.181 163.24C209.479 163.24 209.741 163.213 209.965 163.16C210.189 163.096 210.375 163.011 210.525 162.904C210.685 162.797 210.802 162.664 210.877 162.504C210.962 162.333 211.005 162.141 211.005 161.928C211.005 161.597 210.914 161.341 210.733 161.16C210.562 160.968 210.322 160.803 210.013 160.664C209.714 160.515 209.351 160.381 208.925 160.264C208.509 160.136 208.05 159.987 207.549 159.816C207.218 159.688 206.903 159.549 206.605 159.4C206.317 159.24 206.061 159.043 205.837 158.808C205.623 158.563 205.447 158.28 205.309 157.96C205.181 157.629 205.117 157.235 205.117 156.776C205.117 156.307 205.207 155.88 205.389 155.496C205.57 155.112 205.821 154.781 206.141 154.504C206.471 154.216 206.861 153.997 207.309 153.848C207.757 153.688 208.247 153.608 208.781 153.608C209.538 153.608 210.242 153.731 210.893 153.976C211.554 154.211 212.157 154.552 212.701 155L211.565 156.648C211.181 156.275 210.733 155.997 210.221 155.816C209.709 155.635 209.229 155.544 208.781 155.544C208.525 155.544 208.295 155.576 208.093 155.64C207.89 155.693 207.719 155.773 207.581 155.88C207.442 155.987 207.341 156.12 207.277 156.28C207.213 156.429 207.181 156.595 207.181 156.776C207.181 157.043 207.245 157.261 207.373 157.432C207.511 157.592 207.698 157.736 207.933 157.864C208.178 157.992 208.466 158.109 208.797 158.216C209.127 158.312 209.485 158.413 209.869 158.52C210.263 158.637 210.653 158.776 211.037 158.936C211.421 159.096 211.767 159.304 212.077 159.56C212.386 159.805 212.637 160.109 212.829 160.472C213.021 160.835 213.117 161.283 213.117 161.816C213.117 162.328 213.021 162.792 212.829 163.208C212.647 163.624 212.381 163.976 212.029 164.264C211.677 164.552 211.25 164.776 210.749 164.936C210.247 165.096 209.687 165.176 209.069 165.176ZM216.319 165.16C215.913 165.16 215.54 165.101 215.199 164.984C214.857 164.867 214.564 164.701 214.319 164.488C214.084 164.275 213.897 164.019 213.759 163.72C213.62 163.411 213.551 163.069 213.551 162.696V162.552C213.551 161.645 213.935 160.973 214.703 160.536C215.471 160.088 216.655 159.864 218.255 159.864H218.911V159.496C218.911 159.08 218.777 158.755 218.511 158.52C218.255 158.275 217.871 158.152 217.359 158.152H217.279C216.863 158.152 216.436 158.221 215.999 158.36C215.572 158.499 215.161 158.707 214.767 158.984L213.951 157.576C214.463 157.245 215.012 156.984 215.599 156.792C216.185 156.6 216.788 156.504 217.407 156.504H217.551C218.052 156.504 218.505 156.573 218.911 156.712C219.316 156.851 219.657 157.053 219.935 157.32C220.223 157.576 220.436 157.891 220.575 158.264C220.724 158.637 220.799 159.059 220.799 159.528V163.288C220.799 163.576 220.825 163.869 220.879 164.168C220.943 164.456 221.012 164.733 221.087 165H219.199C219.156 164.883 219.113 164.739 219.071 164.568C219.039 164.387 219.012 164.211 218.991 164.04C218.639 164.392 218.233 164.669 217.775 164.872C217.316 165.064 216.831 165.16 216.319 165.16ZM216.735 163.56C217.161 163.56 217.561 163.469 217.935 163.288C218.319 163.107 218.644 162.856 218.911 162.536V161.144H218.431C217.407 161.144 216.655 161.251 216.175 161.464C215.705 161.667 215.471 161.992 215.471 162.44V162.52C215.471 162.68 215.497 162.824 215.551 162.952C215.615 163.08 215.7 163.187 215.807 163.272C215.924 163.357 216.063 163.427 216.223 163.48C216.383 163.533 216.553 163.56 216.735 163.56ZM222.361 165V153.48H224.345V165H222.361ZM229.475 165.144C228.867 165.144 228.307 165.048 227.795 164.856C227.294 164.653 226.862 164.376 226.499 164.024C226.147 163.661 225.875 163.229 225.683 162.728C225.491 162.216 225.395 161.656 225.395 161.048V160.728C225.395 160.109 225.491 159.544 225.683 159.032C225.875 158.52 226.147 158.083 226.499 157.72C226.862 157.347 227.289 157.059 227.779 156.856C228.27 156.643 228.819 156.536 229.427 156.536H229.587C230.142 156.536 230.649 156.632 231.107 156.824C231.566 157.005 231.961 157.267 232.291 157.608C232.622 157.949 232.878 158.355 233.059 158.824C233.241 159.293 233.331 159.811 233.331 160.376V161.448H227.363V161.464C227.395 161.773 227.47 162.056 227.587 162.312C227.705 162.557 227.854 162.765 228.035 162.936C228.227 163.107 228.457 163.24 228.723 163.336C228.99 163.432 229.283 163.48 229.603 163.48H229.763C230.265 163.48 230.697 163.379 231.059 163.176C231.433 162.963 231.742 162.707 231.987 162.408L233.075 163.608C232.883 163.843 232.659 164.056 232.403 164.248C232.158 164.44 231.886 164.6 231.587 164.728C231.299 164.856 230.995 164.957 230.675 165.032C230.355 165.107 230.025 165.144 229.683 165.144H229.475ZM227.395 160.12H231.427V160.072C231.417 159.773 231.363 159.501 231.267 159.256C231.182 159.011 231.054 158.803 230.883 158.632C230.723 158.461 230.531 158.328 230.307 158.232C230.083 158.136 229.833 158.088 229.555 158.088H229.411C229.134 158.088 228.883 158.136 228.659 158.232C228.435 158.328 228.238 158.461 228.067 158.632C227.897 158.803 227.753 159.016 227.635 159.272C227.529 159.517 227.449 159.8 227.395 160.12Z" fill="white"/>
<path d="M13.6112 29.4756L13.8456 27.2379C13.9751 26.002 15.082 25.1051 16.3178 25.2346L18.5556 25.469" stroke="white" stroke-width="0.75"/>
<path d="M9.46917 69.0091L9.23471 71.2469C9.10522 72.4827 10.0021 73.5896 11.238 73.7191L13.4757 73.9535" stroke="white" stroke-width="0.75"/>
<path d="M45.8357 36.9894L42.9396 64.63L37.9987 64.1124L40.1332 43.7399C38.5902 44.3021 36.8266 44.5517 35.0364 44.3642L35.4753 40.1751C38.1964 40.4602 40.6151 38.7952 40.8589 36.4679L45.8357 36.9894ZM49.1806 60.2888L48.6629 65.2297C48.3741 67.9866 45.9217 69.9739 43.1647 69.685L43.4236 67.2146C44.7841 67.3571 46.0462 66.3672 46.1925 64.9709L43.6862 64.7083L44.2039 59.7673L49.1806 60.2888ZM63.0276 53.6314L62.2623 60.9355C61.9059 64.3368 58.8206 66.8369 55.4192 66.4806C53.7006 66.3005 52.1965 65.4552 51.2067 64.1931C50.1772 62.9632 49.662 61.3165 49.8383 59.6337L50.1234 56.9126L55.1002 57.4341L54.8151 60.1552C54.7813 60.4774 54.8908 60.8146 55.0831 61.052C55.3074 61.3289 55.6147 61.5058 55.9407 61.5038C56.6209 61.5751 57.218 61.0585 57.2893 60.3782L57.8933 54.6138C57.9683 53.8977 57.4234 53.2252 56.7036 53.186C56.0874 53.1939 55.5374 53.6068 55.4341 54.2475C55.4341 54.2475 55.4303 54.2833 55.4266 54.3191L50.4498 53.7977L52.7503 37.7138L63.957 38.888L63.4355 43.8648L56.9908 43.1895L56.1233 49.3969C56.8145 48.673 58.0448 48.3313 59.2263 48.4551C60.7659 48.6165 62.302 49.5013 62.8097 51.2196C63.0174 52.0015 63.1139 52.8079 63.0276 53.6314ZM64.7269 44.724C65.0871 41.2868 68.1687 38.8225 71.6058 39.1827C75.0072 39.5391 77.5111 42.5886 77.1509 46.0258L75.4441 62.3166C75.0877 65.718 72.0024 68.2181 68.601 67.8617C65.1638 67.5016 62.6637 64.4162 63.0201 61.0149L64.7269 44.724ZM67.9968 61.5363C67.9255 62.2166 68.4063 62.8099 69.1224 62.8849C69.8027 62.9562 70.396 62.4754 70.4673 61.7951L72.1742 45.5043C72.2455 44.824 71.7684 44.1949 71.0881 44.1236C70.3721 44.0486 69.775 44.5652 69.7037 45.2455L67.9968 61.5363ZM77.9087 46.1052C78.2688 42.668 81.3504 40.2037 84.7876 40.5638C88.189 40.9202 90.6928 43.9697 90.3327 47.4069L88.6258 63.6977C88.2694 67.0991 85.1841 69.5992 81.7827 69.2428C78.3455 68.8827 75.8454 65.7974 76.2018 62.396L77.9087 46.1052ZM81.1786 62.9174C81.1073 63.5977 81.5881 64.191 82.3042 64.2661C82.9844 64.3373 83.5778 63.8565 83.6491 63.1763L85.3559 46.8854C85.4272 46.2052 84.9502 45.576 84.2699 45.5048C83.5538 45.4297 82.9567 45.9463 82.8855 46.6266L81.1786 62.9174ZM94.1105 64.9963L93.5928 69.9373C93.3039 72.6942 90.8515 74.6814 88.0946 74.3926L88.3534 71.9221C89.714 72.0647 90.976 71.0748 91.1223 69.6784L88.616 69.4158L89.1337 64.4749L94.1105 64.9963ZM96.475 48.0505C96.8352 44.6133 99.9167 42.149 103.354 42.5091C106.755 42.8655 109.259 45.915 108.899 49.3522L107.192 65.643C106.836 69.0444 103.75 71.5445 100.349 71.1881C96.9119 70.828 94.4118 67.7427 94.7682 64.3413L96.475 48.0505ZM99.7449 64.8627C99.6736 65.543 100.154 66.1363 100.871 66.2114C101.551 66.2826 102.144 65.8018 102.215 65.1216L103.922 48.8307C103.994 48.1505 103.517 47.5213 102.836 47.4501C102.12 47.375 101.523 47.8916 101.452 48.5719L99.7449 64.8627ZM109.657 49.4316C110.017 45.9944 113.098 43.5301 116.536 43.8902C119.937 44.2466 122.441 47.2961 122.081 50.7333L120.374 67.0241C120.018 70.4255 116.932 72.9256 113.531 72.5692C110.094 72.2091 107.594 69.1238 107.95 65.7224L109.657 49.4316ZM112.927 66.2438C112.855 66.9241 113.336 67.5175 114.052 67.5925C114.733 67.6638 115.326 67.183 115.397 66.5027L117.104 50.2119C117.175 49.5316 116.698 48.9025 116.018 48.8312C115.302 48.7562 114.705 49.2727 114.634 49.953L112.927 66.2438ZM122.839 50.8127C123.199 47.3755 126.28 44.9112 129.717 45.2714C133.119 45.6277 135.623 48.6773 135.263 52.1144L133.556 68.4053C133.199 71.8066 130.114 74.3068 126.713 73.9504C123.275 73.5902 120.775 70.5049 121.132 67.1035L122.839 50.8127ZM126.108 67.625C126.037 68.3053 126.518 68.8986 127.234 68.9736C127.914 69.0449 128.508 68.5641 128.579 67.8838L130.286 51.593C130.357 50.9127 129.88 50.2836 129.2 50.2123C128.484 50.1373 127.887 50.6539 127.815 51.3342L126.108 67.625Z" fill="white"/>
<path d="M159.811 44.7936L160.045 42.5559C160.175 41.32 159.278 40.2131 158.042 40.0837L155.804 39.8492" stroke="white" stroke-width="0.75"/>
<path d="M155.669 84.3272L155.434 86.565C155.305 87.8009 154.198 88.6978 152.962 88.5683L150.724 88.3338" stroke="white" stroke-width="0.75"/>
<path d="M128 312L128 101" stroke="white" stroke-width="2"/>
<circle cx="128" cy="313.5" r="7" transform="rotate(-90 128 313.5)" fill="#2C5AFF" stroke="white" stroke-width="2"/>
<defs>
<clipPath id="clip0_2479_2458">
<rect width="336" height="303" fill="white" transform="translate(22.5 173)"/>
</clipPath>
</defs>
</svg>
