<svg width="956" height="503" viewBox="0 0 956 503" fill="none" xmlns="http://www.w3.org/2000/svg">
<g clip-path="url(#clip0_2480_2460)">
<mask id="mask0_2480_2460" style="mask-type:luminance" maskUnits="userSpaceOnUse" x="532" y="171" width="218" height="303">
<path d="M750 171H532V474H750V171Z" fill="white"/>
</mask>
<g mask="url(#mask0_2480_2460)">
<path d="M917.081 371.195C916.242 368.427 914.11 365.874 910.875 363.942C907.424 361.89 903.925 359.957 900.403 358.073C886.313 350.51 871.72 343.925 857.102 337.459C827.7 324.456 798.274 311.454 768.128 300.264C759.694 297.139 751.211 294.156 742.632 291.413C738.271 290.005 733.886 288.693 729.453 287.476C728.039 287.094 726.601 286.689 725.163 286.307C724.013 285.925 722.863 285.544 721.665 285.233C717.783 284.16 713.853 283.229 709.947 282.275C701.991 280.319 694.036 278.386 686.104 276.358C678.676 274.473 671.271 272.326 664.298 269.081C658.283 266.266 652.604 262.807 647.236 258.894C636.166 250.83 626.556 240.881 617.57 230.598C608.009 219.695 599.263 207.98 588.839 197.841C583.088 192.234 576.762 187.128 569.765 183.144C566.29 181.164 562.624 179.446 558.838 178.134C555.028 176.821 551.146 176.153 547.168 175.772C545.85 175.652 545.227 177.084 545.514 178.157C545.443 178.396 545.371 178.635 545.347 178.921C545.251 179.661 545.155 180.424 545.083 181.164C545.011 181.879 544.915 182.643 544.915 183.359C544.7 184.48 544.604 185.649 544.508 186.77C544.292 189.228 544.077 191.709 543.861 194.19C543.046 203.71 542.255 213.205 541.513 222.725C541.153 227.401 540.794 232.077 540.41 236.777C540.051 241.119 539.548 245.485 538.11 249.613C535.474 257.248 529.1 262.663 523.133 267.769C519.155 271.181 515.177 274.569 511.2 277.957C509.402 279.484 507.605 280.963 505.664 282.323C505.017 282.776 504.346 283.229 503.675 283.659C493.946 285.901 484.194 288.144 474.465 290.387C454.695 294.968 434.95 299.668 415.253 304.535C409.693 305.919 404.158 307.278 398.623 308.71C396.274 309.306 393.902 309.903 391.53 310.547C386.162 311.597 380.794 312.575 375.403 313.41C368.334 314.484 361.217 315.223 354.076 315.39C350.529 315.462 346.983 315.295 343.412 315.247C342.094 315.247 340.8 315.152 339.483 315.032C336.152 314.054 332.941 312.67 329.802 311.191C322.205 307.589 314.609 303.986 306.821 300.789C304.856 299.978 302.891 299.19 300.926 298.427C298.938 297.664 296.877 296.638 294.768 297.64C291.341 299.262 291.174 303.628 291.629 306.873C292.108 310.356 293.809 314.15 292.659 317.633C291.581 320.901 288.49 323.383 286.069 325.697C283.146 328.488 280.175 331.232 276.82 333.499C275.119 334.644 273.297 335.694 271.428 336.553C270.23 337.101 269.032 337.578 267.834 338.079C266.444 338.223 265.054 338.413 263.664 338.557C259.231 338.986 254.798 339.32 250.365 339.606C248.184 339.75 246.004 339.845 243.847 340.012C242.409 340.131 240.924 340.155 239.462 340.298C237.257 337.316 234.238 334.811 231.339 332.783C225.012 328.321 217.776 325.101 210.802 321.808C195.634 314.603 180.13 308.113 164.698 301.505C149.242 294.872 133.81 288.12 118.857 280.414C104.048 272.779 89.695 264.19 76.515 254.003C69.638 248.706 63.048 243.052 56.195 237.732C52.792 235.083 49.341 232.531 45.747 230.121C42.176 227.735 38.39 225.039 34.293 223.703C32.304 223.059 30.075 222.987 28.086 223.655C26.313 224.252 26.553 226.375 27.871 226.995C28.709 228.856 29.812 230.622 30.77 232.387C32.016 234.654 33.214 236.92 34.413 239.211C36.737 243.553 38.151 248.301 40.883 252.452C42.129 254.337 43.638 256.007 44.908 257.868C45.531 258.775 46.106 259.634 46.346 260.731C46.586 261.828 46.753 262.974 46.897 264.071C47.185 266.266 47.592 268.413 48.982 270.227C50.372 272.016 52.385 272.803 54.613 272.923C57.177 273.042 59.837 272.541 62.401 272.302C62.952 272.254 63.527 272.207 64.102 272.159C63.288 276.597 67.697 281.535 70.261 284.661C73.951 289.146 77.833 293.464 81.787 297.735C89.743 306.348 98.106 314.507 106.804 322.405C124.177 338.151 142.437 352.919 159.738 368.737C164.003 372.626 168.7 376.491 172.198 381.12C172.606 382.074 173.037 383.005 173.277 384.03C173.732 385.987 173.732 388.015 173.564 389.995C173.181 394.6 171.911 399.109 170.928 403.594C169.97 408.032 169.131 412.541 167.669 416.836C166.184 421.226 164.075 425.401 162.182 429.624L155.616 444.177C155.137 445.251 155.305 446.539 156.407 447.183C157.15 447.613 158.252 447.541 158.947 446.969C162.685 447.207 166.328 446.038 169.85 444.726C173.852 443.247 177.806 441.6 181.592 439.596C188.685 435.803 195.083 430.769 200.858 425.186C212.408 414.02 221.514 400.755 232.081 388.731C232.537 388.206 233.016 387.705 233.495 387.204C233.735 386.989 233.95 386.774 234.19 386.583C235.604 385.343 236.946 384.197 238.767 383.577C240.684 382.933 242.745 382.861 244.758 382.694C249.119 382.36 253.528 382.36 257.889 381.955C258.009 381.955 258.105 381.907 258.225 381.907C258.656 382.026 259.063 382.193 259.495 382.432C260.501 383.028 261.46 383.649 262.346 384.388C264.599 386.273 266.756 388.23 268.984 390.138C271.189 392.047 273.441 393.884 275.646 395.793C276.7 396.723 277.778 397.63 278.809 398.608C279.528 399.276 280.271 400.111 281.157 400.564C281.421 401.28 281.157 401.972 280.774 402.616C280.247 403.57 279.671 404.549 279.096 405.479C277.802 407.531 276.317 409.487 274.975 411.491C274.28 412.541 273.585 413.591 272.89 414.617C272.147 415.738 271.213 416.692 270.446 417.79C270.23 418.1 270.134 418.41 270.11 418.697C269.823 419.221 269.847 419.866 270.47 420.414C274.064 423.516 279.839 423.731 284.368 423.206C289.4 422.609 294.121 420.939 298.602 418.649C303.107 416.358 307.301 413.519 311.518 410.752C315.975 407.841 320.384 404.405 325.273 402.258C327.813 401.137 330.568 400.517 333.276 400.039C334.69 399.777 336.08 399.395 337.446 398.966C338.764 398.918 340.082 398.918 341.4 398.966C344.371 399.109 347.342 399.347 350.314 399.634C352.207 399.801 354.196 399.92 356.137 400.159C356.4 401.185 357.167 402.067 357.838 402.855C358.054 403.093 358.269 403.332 358.485 403.57C357.502 404.382 356.76 405.598 356.376 406.72C355.657 408.819 356.52 410.895 358.293 412.136C361.936 414.712 366.393 416.072 369.987 418.768C372.958 420.987 374.492 424.327 375.546 427.787C376.098 429.671 376.529 431.58 376.984 433.489C377.224 434.515 377.44 435.636 377.751 436.686C377.655 437.449 377.895 438.213 378.422 438.833C378.71 439.143 379.021 439.382 379.357 439.549C379.572 439.692 379.812 439.787 380.028 439.811C380.675 439.978 381.393 439.978 382.136 439.811C384.485 439.286 386.761 438.26 388.966 437.306C390.787 436.495 392.56 435.588 394.285 434.586C396.49 434.705 398.551 433.99 400.612 433.25C402.696 432.51 404.733 431.675 406.77 430.793C410.628 429.099 414.39 427.214 418.176 425.329C421.89 423.492 425.629 421.631 429.487 420.104C429.87 419.961 430.23 419.794 430.613 419.627C438.137 421.369 445.781 422.609 453.401 423.874C461.764 425.281 470.127 426.57 478.514 427.739C495.504 430.125 512.542 432.081 529.603 433.584C563.726 436.59 598.017 437.807 632.26 437.234C641.821 437.067 651.358 436.781 660.919 436.328C665.784 436.113 670.648 435.851 675.512 435.54C676.111 435.493 676.711 435.469 677.31 435.421C677.813 435.994 678.388 436.543 678.867 436.972C680.497 438.523 682.294 439.954 684.067 441.362C687.685 444.273 691.448 446.992 695.33 449.569C698.708 451.812 702.686 453.72 705.274 456.917C707.718 459.947 708.677 464.099 712.199 466.246C713.733 467.177 715.746 467.725 717.543 467.439C720.778 467.534 724.133 466.27 726.913 464.767C731.01 462.548 734.557 459.279 737.576 455.772C743.495 448.877 747.712 440.527 749.653 431.652C749.725 431.341 749.773 431.007 749.821 430.673C750.827 430.721 751.81 430.697 752.816 430.673C755.165 430.673 757.513 430.578 759.885 430.459C764.414 430.22 768.919 429.814 773.424 429.313C782.29 428.311 791.085 426.856 799.855 425.234C808.434 423.659 817.012 422.013 825.543 420.176C833.93 418.386 842.293 416.239 850.225 412.947C853.556 411.563 857.246 410.131 859.738 407.412C861.487 405.503 862.518 402.926 862.302 400.397C866.568 400.111 870.833 399.491 875.002 398.584C885.929 396.27 896.856 392.238 906.633 386.822C909.054 385.486 911.354 383.863 913.391 381.979C917.033 378.591 918.111 374.678 917.033 371.123L917.081 371.195Z" fill="#001A67"/>
</g>
</g>
<path d="M589.547 34.4645L589.829 32.2322C589.985 30.9994 591.111 30.1263 592.344 30.2821L594.576 30.5641" stroke="white" stroke-width="0.75"/>
<path d="M584.564 73.901L584.282 76.1332C584.126 77.3661 584.999 78.4918 586.232 78.6476L588.464 78.9296" stroke="white" stroke-width="0.75"/>
<path d="M622.254 57.6226L621.333 64.9086C620.905 68.3016 617.767 70.7355 614.374 70.3067C612.659 70.0901 611.174 69.2129 610.211 67.9301C609.208 66.6784 608.728 65.0212 608.94 63.3425L609.283 60.6281L614.247 61.2555L613.904 63.9699C613.864 64.2913 613.966 64.6308 614.153 64.8722C614.372 65.1538 614.675 65.3373 615.001 65.3422C615.68 65.4279 616.288 64.9242 616.373 64.2456L617.1 58.4953C617.19 57.781 616.66 57.0971 615.941 57.0425C615.325 57.0372 614.766 57.4384 614.649 58.0767C614.649 58.0767 614.645 58.1125 614.64 58.1482L609.675 57.5208L612.318 41.4897L623.497 42.9023L622.87 47.8668L616.441 47.0544L615.441 53.2419C616.148 52.5329 617.385 52.2175 618.564 52.3665C620.1 52.5605 621.617 53.4779 622.088 55.2066C622.278 55.9928 622.358 56.8011 622.254 57.6226ZM624.143 48.7534C624.576 45.3246 627.709 42.9265 631.138 43.3598C634.531 43.7885 636.969 46.8907 636.536 50.3194L634.483 66.5702C634.054 69.9632 630.916 72.397 627.523 71.9683C624.094 71.535 621.66 68.3972 622.089 65.0041L624.143 48.7534ZM627.054 65.6315C626.968 66.3101 627.436 66.9135 628.15 67.0038C628.829 67.0895 629.432 66.6215 629.518 65.9429L631.572 49.6921C631.657 49.0135 631.194 48.3744 630.515 48.2886C629.801 48.1983 629.193 48.7021 629.107 49.3807L627.054 65.6315ZM637.292 50.415C637.725 46.9862 640.859 44.5881 644.287 45.0214C647.68 45.4501 650.119 48.5523 649.685 51.981L647.632 68.2318C647.203 71.6248 644.065 74.0586 640.672 73.6299C637.244 73.1966 634.81 70.0587 635.239 66.6657L637.292 50.415ZM640.203 67.2931C640.117 67.9717 640.585 68.5751 641.3 68.6654C641.978 68.7511 642.582 68.2831 642.667 67.6045L644.721 51.3537C644.807 50.6751 644.343 50.0359 643.665 49.9502C642.95 49.8599 642.342 50.3637 642.257 51.0423L640.203 67.2931ZM653.088 69.6469L652.465 74.5757C652.117 77.3259 649.623 79.2604 646.873 78.9129L647.184 76.4485C648.542 76.62 649.824 75.6573 650 74.2643L647.5 73.9484L648.123 69.0196L653.088 69.6469ZM655.813 52.7553C656.246 49.3266 659.379 46.9285 662.808 47.3617C666.201 47.7905 668.639 50.8926 668.206 54.3214L666.153 70.5721C665.724 73.9652 662.586 76.399 659.193 75.9702C655.764 75.537 653.33 72.3991 653.759 69.0061L655.813 52.7553ZM658.724 69.6334C658.638 70.312 659.106 70.9154 659.82 71.0057C660.499 71.0915 661.102 70.6234 661.188 69.9448L663.242 53.694C663.327 53.0154 662.864 52.3763 662.185 52.2905C661.471 52.2003 660.863 52.704 660.777 53.3826L658.724 69.6334ZM668.962 54.4169C669.395 50.9882 672.529 48.5901 675.957 49.0233C679.35 49.4521 681.789 52.5542 681.355 55.983L679.302 72.2337C678.873 75.6268 675.735 78.0606 672.342 77.6318C668.914 77.1986 666.48 74.0607 666.909 70.6677L668.962 54.4169ZM671.873 71.295C671.787 71.9736 672.255 72.577 672.97 72.6673C673.648 72.7531 674.252 72.285 674.337 71.6064L676.391 55.3556C676.477 54.677 676.013 54.0379 675.335 53.9521C674.62 53.8619 674.012 54.3656 673.927 55.0442L671.873 71.295ZM682.111 56.0785C682.545 52.6497 685.678 50.2516 689.107 50.6849C692.5 51.1137 694.938 54.2158 694.505 57.6446L692.451 73.8953C692.023 77.2884 688.885 79.7222 685.492 79.2934C682.063 78.8601 679.629 75.7223 680.058 72.3293L682.111 56.0785ZM685.022 72.9566C684.937 73.6352 685.405 74.2386 686.119 74.3289C686.798 74.4146 687.401 73.9466 687.487 73.268L689.54 57.0172C689.626 56.3386 689.163 55.6995 688.484 55.6137C687.77 55.5235 687.162 56.0272 687.076 56.7058L685.022 72.9566Z" fill="white"/>
<path d="M718.521 50.7622L718.803 48.53C718.959 47.2971 718.086 46.1714 716.853 46.0157L714.621 45.7336" stroke="white" stroke-width="0.75"/>
<path d="M713.538 90.1986L713.256 92.4308C713.1 93.6637 711.975 94.5368 710.742 94.381L708.51 94.0989" stroke="white" stroke-width="0.75"/>
<path d="M627.136 112V121.792C627.136 126.352 623.392 130.096 618.832 130.096C616.528 130.096 614.416 129.184 612.928 127.648C611.392 126.16 610.48 124.048 610.48 121.792V118.144H617.152V121.792C617.152 122.224 617.344 122.656 617.632 122.944C617.968 123.28 618.4 123.472 618.832 123.424C619.744 123.424 620.464 122.656 620.464 121.744V114.016C620.464 113.056 619.648 112.24 618.688 112.288C617.872 112.384 617.2 113.008 617.152 113.872C617.152 113.872 617.152 113.92 617.152 113.968H610.48L611.296 92.32H626.32V98.992H617.68L617.392 107.344C618.208 106.288 619.792 105.664 621.376 105.664C623.44 105.664 625.6 106.624 626.512 108.832C626.896 109.84 627.136 110.896 627.136 112ZM637.224 95.248C639.912 95.248 641.944 96.192 643.32 98.08C644.728 99.936 645.432 102.56 645.432 105.952C645.432 109.344 644.776 112 643.464 113.92C642.152 115.808 640.072 116.752 637.224 116.752C635.464 116.752 633.976 116.32 632.76 115.456C631.576 114.592 630.68 113.36 630.072 111.76C629.464 110.128 629.16 108.192 629.16 105.952C629.16 102.56 629.8 99.936 631.08 98.08C632.36 96.192 634.408 95.248 637.224 95.248ZM637.272 100.144C636.504 100.144 635.944 100.624 635.592 101.584C635.24 102.544 635.064 104.016 635.064 106C635.064 107.952 635.24 109.424 635.592 110.416C635.944 111.408 636.504 111.904 637.272 111.904C638.04 111.904 638.6 111.408 638.952 110.416C639.336 109.424 639.528 107.952 639.528 106C639.528 104.016 639.336 102.544 638.952 101.584C638.6 100.624 638.04 100.144 637.272 100.144ZM661.56 95.728L642.552 130H636.936L655.944 95.728H661.56ZM661.224 108.928C663.016 108.928 664.52 109.36 665.736 110.224C666.952 111.056 667.864 112.272 668.472 113.872C669.112 115.44 669.432 117.36 669.432 119.632C669.432 123.024 668.776 125.68 667.464 127.6C666.152 129.488 664.072 130.432 661.224 130.432C659.464 130.432 657.976 130 656.76 129.136C655.576 128.272 654.68 127.04 654.072 125.44C653.464 123.808 653.16 121.872 653.16 119.632C653.16 116.24 653.8 113.616 655.08 111.76C656.36 109.872 658.408 108.928 661.224 108.928ZM661.272 113.824C660.504 113.824 659.944 114.304 659.592 115.264C659.24 116.224 659.064 117.696 659.064 119.68C659.064 121.632 659.24 123.104 659.592 124.096C659.944 125.088 660.504 125.584 661.272 125.584C662.04 125.584 662.6 125.104 662.952 124.144C663.336 123.152 663.528 121.664 663.528 119.68C663.528 117.696 663.336 116.224 662.952 115.264C662.6 114.304 662.04 113.824 661.272 113.824Z" fill="#2C5AFF"/>
<path d="M609.952 166L613.744 154.8H616.496L620.272 166H618.016L616.976 162.672L616.96 162.464L615.184 156.896H615.04L613.232 162.544L613.216 162.72L612.192 166H609.952ZM612.432 163.36L613.072 161.632H617.136L617.776 163.36H612.432ZM623.663 166.144C623.119 166.144 622.618 166.048 622.159 165.856C621.711 165.653 621.322 165.371 620.991 165.008C620.671 164.645 620.42 164.219 620.239 163.728C620.068 163.227 619.983 162.677 619.983 162.08V161.6C619.983 161.003 620.068 160.453 620.239 159.952C620.42 159.451 620.671 159.024 620.991 158.672C621.322 158.309 621.711 158.032 622.159 157.84C622.618 157.637 623.119 157.536 623.663 157.536H623.807C624.308 157.536 624.762 157.621 625.167 157.792C625.583 157.952 625.951 158.187 626.271 158.496V154.48H628.255V166H626.687C626.634 165.872 626.586 165.723 626.543 165.552C626.511 165.371 626.484 165.195 626.463 165.024C626.132 165.376 625.743 165.653 625.295 165.856C624.847 166.048 624.346 166.144 623.791 166.144H623.663ZM624.095 164.56H624.223C624.532 164.56 624.815 164.501 625.071 164.384C625.327 164.267 625.54 164.096 625.711 163.872C625.892 163.637 626.031 163.365 626.127 163.056C626.223 162.736 626.271 162.384 626.271 162V161.616C626.271 161.243 626.223 160.901 626.127 160.592C626.031 160.283 625.892 160.021 625.711 159.808C625.53 159.584 625.311 159.413 625.055 159.296C624.81 159.179 624.532 159.12 624.223 159.12H624.095C623.786 159.12 623.503 159.179 623.247 159.296C623.002 159.413 622.788 159.584 622.607 159.808C622.436 160.021 622.298 160.283 622.191 160.592C622.095 160.901 622.047 161.243 622.047 161.616V162C622.047 162.395 622.095 162.752 622.191 163.072C622.298 163.381 622.436 163.648 622.607 163.872C622.788 164.096 623.002 164.267 623.247 164.384C623.503 164.501 623.786 164.56 624.095 164.56ZM631.808 166L628.944 157.68H631.04L632.992 164.176H633.152L635.088 157.68H637.184L634.304 166H631.808ZM637.856 166V157.68H639.84V166H637.856ZM638.832 156.384C638.491 156.384 638.214 156.288 638 156.096C637.787 155.904 637.68 155.648 637.68 155.328C637.68 155.008 637.787 154.747 638 154.544C638.214 154.341 638.491 154.24 638.832 154.24C639.184 154.24 639.467 154.341 639.68 154.544C639.904 154.747 640.016 155.008 640.016 155.328C640.016 155.648 639.904 155.904 639.68 156.096C639.467 156.288 639.184 156.384 638.832 156.384ZM644.123 166.08C643.739 166.08 643.398 166.032 643.099 165.936C642.811 165.829 642.566 165.675 642.363 165.472C642.16 165.259 642 164.997 641.883 164.688C641.776 164.368 641.723 163.989 641.723 163.552V159.28H640.635V157.936C640.784 157.883 640.955 157.835 641.147 157.792C641.35 157.739 641.542 157.707 641.723 157.696V155.76L643.707 155.52V157.68H645.979V159.28H643.691V163.168C643.691 163.627 643.776 163.941 643.947 164.112C644.118 164.283 644.368 164.368 644.699 164.368C644.784 164.368 644.891 164.368 645.019 164.368C645.147 164.357 645.27 164.347 645.387 164.336C645.515 164.315 645.638 164.293 645.755 164.272C645.883 164.251 645.984 164.224 646.059 164.192V165.76C645.814 165.867 645.499 165.947 645.115 166C644.742 166.053 644.411 166.08 644.123 166.08ZM650.409 166.144C649.801 166.144 649.247 166.048 648.745 165.856C648.244 165.653 647.812 165.371 647.449 165.008C647.087 164.645 646.804 164.213 646.601 163.712C646.409 163.211 646.313 162.667 646.313 162.08V161.6C646.313 161.003 646.409 160.459 646.601 159.968C646.804 159.467 647.087 159.035 647.449 158.672C647.812 158.309 648.244 158.032 648.745 157.84C649.247 157.637 649.801 157.536 650.409 157.536H650.569C651.167 157.536 651.716 157.637 652.217 157.84C652.719 158.032 653.151 158.309 653.513 158.672C653.876 159.035 654.159 159.467 654.361 159.968C654.564 160.459 654.665 161.003 654.665 161.6V162.08C654.665 162.667 654.564 163.211 654.361 163.712C654.159 164.213 653.876 164.645 653.513 165.008C653.151 165.371 652.719 165.653 652.217 165.856C651.716 166.048 651.167 166.144 650.569 166.144H650.409ZM650.409 164.56H650.553C650.863 164.56 651.14 164.501 651.385 164.384C651.641 164.267 651.86 164.096 652.041 163.872C652.223 163.637 652.361 163.365 652.457 163.056C652.553 162.736 652.601 162.384 652.601 162V161.616C652.601 161.243 652.548 160.901 652.441 160.592C652.345 160.283 652.207 160.021 652.025 159.808C651.855 159.584 651.641 159.413 651.385 159.296C651.129 159.179 650.852 159.12 650.553 159.12H650.409C650.111 159.12 649.833 159.179 649.577 159.296C649.332 159.413 649.119 159.584 648.937 159.808C648.756 160.021 648.612 160.283 648.505 160.592C648.409 160.901 648.361 161.243 648.361 161.616V162C648.361 162.384 648.409 162.736 648.505 163.056C648.612 163.365 648.751 163.637 648.921 163.872C649.103 164.096 649.316 164.267 649.561 164.384C649.817 164.501 650.1 164.56 650.409 164.56ZM655.702 166V157.68H657.254C657.307 157.84 657.355 158.021 657.398 158.224C657.451 158.427 657.489 158.619 657.51 158.8C657.809 158.448 658.166 158.176 658.582 157.984C659.009 157.781 659.483 157.68 660.006 157.68H660.214V159.584C660.139 159.563 660.043 159.547 659.926 159.536C659.819 159.525 659.713 159.52 659.606 159.52C659.286 159.52 659.009 159.563 658.774 159.648C658.539 159.733 658.337 159.867 658.166 160.048C658.006 160.219 657.883 160.437 657.798 160.704C657.723 160.96 657.686 161.259 657.686 161.6V166H655.702ZM664.102 166.16C663.366 166.16 662.678 166.059 662.038 165.856C661.408 165.653 660.848 165.355 660.358 164.96L661.35 163.536C661.52 163.696 661.712 163.835 661.926 163.952C662.15 164.069 662.379 164.171 662.614 164.256C662.848 164.341 663.088 164.411 663.334 164.464C663.579 164.507 663.819 164.528 664.054 164.528C664.267 164.528 664.454 164.512 664.614 164.48C664.784 164.437 664.923 164.379 665.03 164.304C665.147 164.219 665.232 164.123 665.286 164.016C665.339 163.909 665.366 163.776 665.366 163.616C665.366 163.413 665.312 163.259 665.206 163.152C665.099 163.035 664.939 162.933 664.726 162.848C664.523 162.763 664.272 162.683 663.974 162.608C663.686 162.533 663.355 162.437 662.982 162.32C662.694 162.235 662.411 162.139 662.134 162.032C661.856 161.925 661.606 161.787 661.382 161.616C661.168 161.445 660.998 161.232 660.87 160.976C660.742 160.709 660.678 160.389 660.678 160.016C660.678 159.632 660.747 159.285 660.886 158.976C661.024 158.667 661.222 158.405 661.478 158.192C661.744 157.968 662.059 157.803 662.422 157.696C662.795 157.579 663.216 157.52 663.686 157.52C664.283 157.52 664.859 157.616 665.414 157.808C665.968 157.989 666.464 158.235 666.902 158.544L665.958 159.952C665.627 159.707 665.254 159.509 664.838 159.36C664.432 159.211 664.027 159.136 663.622 159.136C663.44 159.136 663.275 159.157 663.126 159.2C662.987 159.232 662.87 159.285 662.774 159.36C662.688 159.424 662.619 159.504 662.566 159.6C662.512 159.696 662.486 159.813 662.486 159.952C662.486 160.123 662.539 160.267 662.646 160.384C662.752 160.501 662.891 160.597 663.062 160.672C663.243 160.747 663.451 160.816 663.686 160.88C663.92 160.933 664.166 160.992 664.422 161.056C664.752 161.131 665.088 161.227 665.43 161.344C665.771 161.451 666.075 161.6 666.342 161.792C666.619 161.973 666.843 162.208 667.014 162.496C667.184 162.784 667.27 163.147 667.27 163.584C667.27 163.979 667.195 164.336 667.046 164.656C666.896 164.976 666.683 165.248 666.406 165.472C666.139 165.696 665.808 165.867 665.414 165.984C665.019 166.101 664.582 166.16 664.102 166.16Z" fill="white"/>
<path d="M568 312L568 101" stroke="white" stroke-width="2"/>
<circle cx="568" cy="313.5" r="7" transform="rotate(-90 568 313.5)" fill="#2C5AFF" stroke="white" stroke-width="2"/>
<defs>
<clipPath id="clip0_2480_2460">
<rect width="218" height="303" fill="white" transform="translate(532 171)"/>
</clipPath>
</defs>
</svg>
